<svg xmlns="http://www.w3.org/2000/svg" viewBox="0 0 548 196.29"><defs><style>.cls-1{fill:#333;}.cls-2{fill:#be1e2d;}.cls-3,.cls-4{fill:#2c3444;}.cls-4{stroke:#fff;stroke-miterlimit:10;}</style></defs><g id="Layer_2" data-name="Layer 2"><g id="Layer_1-2" data-name="Layer 1"><path class="cls-1" d="M309.24,160.16c4,9.58,7.53,17.84,10.81,26.2a7.52,7.52,0,0,1-2.58,9.2c-4.7,1.48-8.91-.31-12.75-2.69-7-4.36-13.83-9.08-20.92-13.77-23.64,10.61-47.52,10.62-71.69-.18-4.34,3.05-8.7,6.29-13.25,9.25a100.07,100.07,0,0,1-11.22,6.47c-3.23,1.56-6.94,2.75-10.12,0s-2.27-6.33-1.14-9.49c2-5.63,4.45-11.12,6.89-16.59,1.14-2.54,2.68-4.91,4.28-7.78-18.48-21.72-25.72-46.6-19.66-74.6,4.22-19.49,14.78-35.2,30.58-47.42C227.15,16.61,271,15.63,301.33,41.67c17.76,15.21,27.37,34.73,28.9,58S323.41,143.18,309.24,160.16ZM179.87,104.8A68.17,68.17,0,0,0,248,173.14c37.84,0,68.17-30.67,68.4-68.83.23-37.49-32.19-69.46-70.62-68.29C209.65,37.12,179.78,67.31,179.87,104.8Z"/><path class="cls-1" d="M176,65A103.23,103.23,0,0,1,169,57c-3.1-4.37-2.65-8.88,1.28-12.62,5.25-5,10.62-9.86,16.15-14.51,4.27-3.59,8.93-3.26,13,.58,2.27,2.15,4.37,4.49,6.94,7.15C193.62,43.85,184.58,53.58,176,65Z"/><path class="cls-2" d="M142.55,63c-.4-1.55-1.19-3.11-1.16-4.65.54-28.53,19.89-50.74,45.66-56.26,3.8-.81,7.78-.79,11.69-1,1.95-.12,3.74.25,3.26,3.63a43,43,0,0,1-5.81.94C171.5,6.46,149.94,26,146.77,50.47c-.37,2.84-.48,5.72-.91,8.55a21.7,21.7,0,0,1-1.37,3.89Z"/><path class="cls-2" d="M158.58,62.8a12.39,12.39,0,0,1-2.29-.29,5.7,5.7,0,0,1-1.08-.76c-2.38-23.87,16.58-46.69,42.38-47.14,3.34-.06,3.35,0,4.86,3.49a36.61,36.61,0,0,1-5.5,1.13,39.36,39.36,0,0,0-37.46,37.24C159.39,58.51,158.92,60.53,158.58,62.8Z"/><path class="cls-1" d="M320.24,64a105.43,105.43,0,0,0,6.95-8c3.1-4.37,2.65-8.88-1.28-12.62-5.25-5-10.62-9.86-16.15-14.51-4.27-3.59-8.93-3.25-13,.58-2.27,2.15-4.37,4.49-6.94,7.15C302.59,42.84,311.63,52.57,320.24,64Z"/><path class="cls-2" d="M353.66,62c.4-1.55,1.19-3.11,1.16-4.65-.54-28.52-19.89-50.74-45.66-56.26-3.8-.81-7.78-.79-11.69-1-2-.12-3.75.25-3.26,3.64a44.64,44.64,0,0,0,5.81.93c24.69.86,46.25,20.38,49.42,44.87.37,2.84.48,5.72.91,8.55a21.7,21.7,0,0,0,1.37,3.89Z"/><path class="cls-2" d="M337.63,61.79a13.92,13.92,0,0,0,2.29-.28,6.25,6.25,0,0,0,1.08-.77c2.38-23.87-16.58-46.69-42.38-47.14-3.34-.06-3.35,0-4.86,3.49a36.61,36.61,0,0,0,5.5,1.13,39.36,39.36,0,0,1,37.46,37.24C336.82,57.5,337.29,59.52,337.63,61.79Z"/><path class="cls-3" d="M53.16,97.5c-2.62,2.31-4.87,4.32-7.47,6.54-1.06.9-2.06,1.88-3.12,2.78-.47.4-.79.36-1.32,0-4.94-3.07-10-3.35-15-.23a13.34,13.34,0,0,0-5.77,8.13,1.55,1.55,0,0,0,0,.31s0,.07.08.18l13.35-1.54L.14,158.39,0,158.31l16.89-34.75-4.34.64c-2,.3-4,.58-5.94.9-.51.09-.72-.07-.82-.56A28.48,28.48,0,0,1,22.54,92.05c9.35-3.86,18.38-2.77,26.87,2.69C50.68,95.56,51.86,96.53,53.16,97.5Z"/><path class="cls-3" d="M44.72,126.2c-3,0-5.79,0-8.59,0-.64,0-.8-.18-.8-.81q0-5.79,0-11.58c0-.54.18-.67.67-.67,7.47,0,14.94,0,22.41,0a.74.74,0,0,1,.68.54c1.45,6.28.16,12.16-2.91,17.68-3.76,6.75-9.31,11.38-16.94,13.12-7.19,1.64-14,.29-20.39-3.3-.61-.34-.75-.53-.27-1.16q3.72-4.87,7.35-9.82c.41-.56.7-.66,1.34-.31A13.73,13.73,0,0,0,44.06,127C44.25,126.79,44.42,126.56,44.72,126.2Z"/><path class="cls-3" d="M385.13,94.36l-8.55,5.79c-1.16-3-2.31-6-3.53-9.19-.16.39-.27.63-.35.87-1.94,5.36-3.86,10.73-5.83,16.08a4.16,4.16,0,0,1-1,1.48,126.84,126.84,0,0,0-18.13,22.15,1.4,1.4,0,0,0-.15.3C362.12,112.2,380,97,403.41,89l.12.18c-.94.46-1.88.9-2.81,1.37a92.84,92.84,0,0,0-13.09,8.19c-.49.37-.4.66-.22,1.1q6.7,16.41,13.39,32.82c.28.68.55,1.37.86,2.16h-.82c-3.49,0-7,0-10.46,0a.89.89,0,0,1-1-.69c-1.91-5.06-3.86-10.11-5.77-15.17a.88.88,0,0,0-1-.68q-7,0-13.95,0a1.47,1.47,0,0,0-1.33.65,112.32,112.32,0,0,0-9.73,15.29,1,1,0,0,1-1.05.63c-3.54,0-7.07,0-10.74,0,.2-.57.35-1,.53-1.49q10.69-27.81,21.38-55.62a.77.77,0,0,1,.84-.58q4.5,0,9,0c.36,0,.61,0,.77.45l6.76,16.59A.23.23,0,0,1,385.13,94.36Zm-6.27,11.82-2.76,2.95H380Z"/><path class="cls-4" d="M80.37,90.6q3.45-.78,7.23-1.44T95.35,88q4-.49,7.91-.63,3.75-.06,4.8,2.89a13.07,13.07,0,0,1,1.18,2.86q.33,1.29.66,2.79a3,3,0,0,1-.26,2.3,4.21,4.21,0,0,1-2.43.86l-8.15.92q-4.2.45-8.87,1.11c-.65,2-1.27,4-1.84,6.14s-1.2,4.35-1.9,6.67c1.31-.17,2.63-.3,3.94-.39s2.71-.16,4.2-.2a7.82,7.82,0,0,1,2.89.33,3.52,3.52,0,0,1,1.78,1.71,13.06,13.06,0,0,1,1.21,2.59c.29.86.54,1.72.76,2.6s.38,1.68.1,2a4.37,4.37,0,0,1-2.27.92q-3.94.72-8,1.38t-7.91,1.45l-1,4c-.3,1.25-.63,2.49-1,3.71,2.06-.35,4-.63,5.88-.85s3.88-.4,6.07-.53a6.67,6.67,0,0,1,2.86.27,3.56,3.56,0,0,1,1.74,1.57,15.52,15.52,0,0,1,1.22,2.46c.28.77.6,1.55.95,2.34a2.42,2.42,0,0,1,0,1.8c-.22.33-.92.61-2.1.82-2.81.53-5.65,1.08-8.54,1.65s-5.65,1.09-8.28,1.57a8.48,8.48,0,0,1-4,.3,7.82,7.82,0,0,1-2.34-1c-.74-.48-1.45-1-2.13-1.48S71,141.77,70.09,141a6.69,6.69,0,0,1-1.74-2.16,5.78,5.78,0,0,1-.49-3L74.1,92.11Q76.92,91.39,80.37,90.6Z"/><path class="cls-4" d="M149.18,99q-3,.28-6.24.62-1.38,5.52-2.86,11.43t-2.86,11.73q-1.38,5.8-2.59,11.33t-2.14,10.31a1.58,1.58,0,0,1-.62,1.22,2.52,2.52,0,0,1-1.35.26,8.11,8.11,0,0,1-2-.36l-2.49-.73a22.75,22.75,0,0,1-2.5-.85,6.77,6.77,0,0,1-1.87-1.12,3.76,3.76,0,0,1-1.09-1.54,3.87,3.87,0,0,1-.06-2.13c.13-2.11.39-4.69.79-7.76s.86-6.3,1.41-9.72,1.15-6.86,1.81-10.34,1.31-6.71,2-9.69c-1.27.22-2.5.4-3.68.56a23,23,0,0,0-3,.55,5.33,5.33,0,0,1-2.69.1,5.66,5.66,0,0,1-2.37-1.67,15,15,0,0,1-2.52-3.48c-.77-1.4-1.39-2.59-1.88-3.55s-.65-1.68-.39-2a3.06,3.06,0,0,1,1.64-.82q3.89-.8,8.77-1.45t10-1.18q5.08-.53,10-.89t8.77-.49a8.44,8.44,0,0,1,2.92.36,3.8,3.8,0,0,1,1.55,1.21,15.07,15.07,0,0,1,2.16,3.29,20.2,20.2,0,0,1,1.32,3.48,2.85,2.85,0,0,1,0,2.07q-.36.55-2.4.69Z"/><path class="cls-4" d="M429.14,136.12q-4.36.82-8.31,1.61a12.61,12.61,0,0,1-2.43.46,6.15,6.15,0,0,1-1.71-.1,5.16,5.16,0,0,1-1.21-.42,10.1,10.1,0,0,1-1-.59,23.44,23.44,0,0,1-2-1.48c-.61-.51-1.42-1.15-2.43-1.94a6.67,6.67,0,0,1-1.71-2.07,4.52,4.52,0,0,1-.33-2.79c.14-1.71.36-3.73.66-6.08s.68-4.87,1.12-7.58.92-5.53,1.44-8.45,1.1-5.81,1.71-8.7,1.24-5.67,1.87-8.34,1.26-5.12,1.87-7.36c.44-1.27,1-2,1.68-2.26a5.26,5.26,0,0,1,3.05.23,36.69,36.69,0,0,1,4.41,1.47A23.08,23.08,0,0,1,430,83.87,6.63,6.63,0,0,1,432.1,86a3.6,3.6,0,0,1-.17,2.62q-1.31,3.95-2.66,8.67t-2.69,9.73q-1.35,5-2.56,10c-.81,3.3-1.57,6.47-2.27,9.49q3-.52,5.65-.79c1.75-.17,3.66-.33,5.72-.46a6.86,6.86,0,0,1,2.79.23,3.8,3.8,0,0,1,1.74,1.61,14,14,0,0,1,1.28,2.4,16.56,16.56,0,0,1,.76,2.33,3,3,0,0,1,.23,1.84c-.16.31-.91.59-2.27.85Q433.51,135.31,429.14,136.12Z"/><path class="cls-4" d="M460.94,129.52q-.76,3.67-1.48,7.23a2.35,2.35,0,0,1-.89,1.38,3.31,3.31,0,0,1-2.07,0c-1.18-.31-2.23-.55-3.15-.73a9.15,9.15,0,0,1-2.63-.92,4,4,0,0,1-1.71-1.74,5.79,5.79,0,0,1-.33-2.72c.09-.92.21-2.26.37-4s.34-3.73.55-5.94.47-4.59.76-7.13.59-5.08.92-7.62.69-5,1.08-7.39.81-4.53,1.25-6.44a29.31,29.31,0,0,1,1.45-4.73,4.59,4.59,0,0,1,1.64-2.33q4.07-1.84,8.5-3.61a43.37,43.37,0,0,1,8.74-2.53,24.35,24.35,0,0,1,8.15-.13,12.18,12.18,0,0,1,6.73,3.45A41,41,0,0,1,493,89a23,23,0,0,1,2.92,7,10.79,10.79,0,0,1-.65,7.22,24,24,0,0,1-7.59,8.34,71.76,71.76,0,0,1-12.64,7.1c1,1.14,2.11,2.34,3.31,3.61s2.44,2.54,3.71,3.81,2.53,2.5,3.78,3.68,2.42,2.21,3.51,3.09c.88.74,1.27,1.33,1.19,1.77a2.54,2.54,0,0,1-1.12,1.38,5.3,5.3,0,0,1-2,1.08q-.82.17-2,.36a8.67,8.67,0,0,1-3.18.23,10,10,0,0,1-4-1.54q-1.51-1.05-3.48-2.63c-1.32-1.05-2.67-2.21-4.08-3.48s-2.8-2.59-4.2-4a51.78,51.78,0,0,1-3.81-4.17Q461.7,125.85,460.94,129.52Zm6.66-27.19q-1,3.81-2.23,8.14a37.59,37.59,0,0,0,8.05-3.71,36.38,36.38,0,0,0,5.87-4.47,16.88,16.88,0,0,0,3.42-4.3,4.26,4.26,0,0,0,.66-3.15c-.53-1.23-2.08-1.84-4.67-1.84a21.26,21.26,0,0,0-4.2.46,20.57,20.57,0,0,0-4.86,1.71Q468.59,98.52,467.6,102.33Z"/><path class="cls-4" d="M539.35,91.65l-6.24.63c-.92,3.68-1.88,7.48-2.86,11.43s-1.94,7.85-2.86,11.72-1.78,7.65-2.59,11.33-1.53,7.12-2.14,10.32a1.59,1.59,0,0,1-.62,1.21,2.43,2.43,0,0,1-1.35.26,8,8,0,0,1-2-.36l-2.5-.72a24,24,0,0,1-2.49-.85,6.63,6.63,0,0,1-1.87-1.12,3.73,3.73,0,0,1-1.09-1.54,3.82,3.82,0,0,1-.06-2.14c.13-2.1.39-4.69.78-7.75s.87-6.31,1.42-9.72,1.15-6.87,1.8-10.35,1.32-6.71,2-9.69c-1.27.22-2.49.41-3.67.56a21,21,0,0,0-3,.56,5.56,5.56,0,0,1-2.69.1A5.79,5.79,0,0,1,505,93.85a15.32,15.32,0,0,1-2.53-3.48c-.76-1.4-1.39-2.58-1.87-3.55s-.66-1.67-.39-2a3.13,3.13,0,0,1,1.64-.82c2.58-.53,5.51-1,8.77-1.45s6.59-.83,10-1.18,6.72-.64,10-.88,6.18-.41,8.77-.5a8.48,8.48,0,0,1,2.92.36,3.72,3.72,0,0,1,1.54,1.22A14.7,14.7,0,0,1,546,84.85a19.72,19.72,0,0,1,1.31,3.49,2.79,2.79,0,0,1,0,2.06q-.36.57-2.4.69Q542.37,91.36,539.35,91.65Z"/></g></g></svg>