<svg xmlns="http://www.w3.org/2000/svg" viewBox="0 0 254 254"><defs><style>.cls-1{fill:#d9b57c;}.cls-2{fill:#4ea4b9;}.cls-3{fill:#ad9365;}.cls-4{fill:#b49769;}.cls-5{fill:#7b6745;}.cls-6{fill:#6c5a3c;}.cls-7{fill:#67563a;}.cls-8{fill:#826d4a;}.cls-9{fill:#6a583b;}.cls-10{fill:#5a4b31;}.cls-11{fill:#6d5c3f;}.cls-12{fill:#715d3e;}.cls-13{fill:#7d6747;}.cls-14{fill:#56462e;}.cls-15{fill:#5f4f35;}.cls-16{fill:#6b5a3d;}.cls-17{fill:#88714d;}.cls-18{fill:#06a2dd;}.cls-19{fill:#1bafe7;}.cls-20{fill:#9b845c;}.cls-21{fill:#988058;}</style></defs><g id="Layer_2" data-name="Layer 2"><g id="Layer_1-2" data-name="Layer 1"><rect class="cls-1" width="254" height="254" rx="60.13"/><path class="cls-2" d="M77.11,1.48c0-.47,0-.93.08-1.39.51,0,1-.08,1.55-.08h96.1c.43,0,.87.05,1.31.08a.27.27,0,0,0,.08.17c.18.37,0,.83.29,1.17l0,1.41a1.66,1.66,0,0,1,.13,1q0,26,0,52c-.13.39-.28.75-.8.69-.61-.63-.43-1.43-.43-2.17q0-16.85,0-33.7c0-6.2,0-12.4,0-18.59,0-1.41-.1-1.51-1.5-1.51Q143.7.56,113.47.55l-.48,0c-10,.07-20,0-30,0H79.77c-1.6,0-1.64.05-1.65,1.7,0,.4,0,.8,0,1.2V53.77a9.73,9.73,0,0,1,0,1.08A8.77,8.77,0,0,1,78,56c-.13.42-.25.86-.86.58a1.94,1.94,0,0,1-.29-1.37c0-15.93,0-31.86,0-47.79C76.91,5.45,77.07,3.46,77.11,1.48Z"/><path d="M51.05,142c-1.31-.23-2.28-1.16-3.37-1.79-2-1.15-4.09-2.15-6-3.5-2.54-1.81-5.26-3.35-7.81-5.17-3.08-2.21-6.19-4.37-9.06-6.84a67.64,67.64,0,0,1-5.87-5.1c-.71-.76-1.51-1.51-.7-2.6s2-1.13,3.29-.35c2.06,1.19,4.19,2.25,6.3,3.36,1.52.79,3,1.58,4.57,2.34q3,1.49,6.09,2.91c2,.94,4,2,6.06,2.71,1.66.6,3.27,1.31,4.91,1.93,2.22.84,4.44,1.68,6.65,2.55a17.06,17.06,0,0,0,4.78,1.38c.31.39.89.09,1.21.47,3.53,1.19,7.12,2.21,10.72,3.18,2.21.6,4.42,1.16,6.66,1.61,2.85.57,5.65,1.41,8.52,1.87,2.11.33,4.22.73,6.31,1.11,1.85.34,3.8.24,5.57,1a1.51,1.51,0,0,0,.48.06c4.53.25,9,.9,13.56,1.21a198.85,198.85,0,0,0,24,.37c4.48-.24,9-.4,13.47-.9,3.38-.38,6.78-.74,10.1-1.44,1.89-.39,3.87-.27,5.67-1.1a35.66,35.66,0,0,0,4.09-.7,2.38,2.38,0,0,0,1.41-.28c1-.33,2.11-.38,3.14-.69,2.79-.87,5.74-1.07,8.49-2.14a12.23,12.23,0,0,0,2.56-.73,36.44,36.44,0,0,0,3.83-1c.7-.28,1.31-.82,2.13-.75.72-.27,1.46-.45,2.19-.67,2.79-1,5.65-1.74,8.36-2.93a5.6,5.6,0,0,0,1.94-.71h0a5.83,5.83,0,0,0,1.72-.68,25.71,25.71,0,0,1,4.79-1.83c1.4-.34,2.92-.53,4.07.58,1.55,1.5.94,3.48-.38,4.62a52.19,52.19,0,0,1-6.41,4.43c-3.21,2-6.49,3.91-9.88,5.61-2.68,1.34-5.45,2.5-8.1,3.88-.87.45-1.82.61-2.64,1.11a16.35,16.35,0,0,0-1.65.75h0a10.75,10.75,0,0,0-2.88,1l-2.87,1c-.68.35-1.46.42-2.15.73h0a12.84,12.84,0,0,1-2.18.69l-1.65.71c-1.77.47-3.5,1.09-5.3,1.46a7.9,7.9,0,0,0-2.65.71c-1,.29-2.1.38-3.12.73a2.35,2.35,0,0,1-1.4.28,26,26,0,0,1-3.15.69h0c-1.51.4-3.07.6-4.59,1-1.89.44-3.83.57-5.72,1a24.18,24.18,0,0,1-3.05.37c-3,.26-5.92.56-8.89.75-3.71.22-7.41.22-11.11.3-5.5.13-11-.28-16.47-.67-2.18-.15-4.38-.43-6.56-.77-4-.75-8-1.41-12-2.27-3.23-.69-6.45-1.49-9.62-2.4A98.48,98.48,0,0,1,70,150.46c-1.77-.74-3.65-1.22-5.42-2-2.32-1-4.57-2.12-6.87-3.15a47.89,47.89,0,0,0-4.93-2.17C52.25,142.73,51.57,142.5,51.05,142Z"/><path d="M219.54,147.79c.67-1.71,1.35-3.41,2-5.13.57-1.49,1.15-3,1.62-4.51.8-2.63,1.65-5.25,2.23-7.93a18.51,18.51,0,0,0,.3-6.68c-.26-1.64-1.61-2.22-2.94-2.67-2.87-1-5.88-.81-8.86-.82-.36,0-.72,0-1.08,0-4.19-.17-8.32.67-12.49.91-1,.06-2,.42-3,.44-.63,0-1.21-.06-1.47-.73a1.73,1.73,0,0,1,.4-2,19.17,19.17,0,0,1,4-2.56c.82-.45,1.66-.85,2.49-1.28,1-.27,1.92-.62,2.87-1a53.35,53.35,0,0,1,8.19-1.77,45.33,45.33,0,0,1,12.25-.29,22.81,22.81,0,0,1,8.21,2,3.38,3.38,0,0,1,1.8,3.21,33.61,33.61,0,0,1-.74,9,52.73,52.73,0,0,1-2.83,9,4.35,4.35,0,0,1-.76,1.63,34.85,34.85,0,0,1-7.81,12c-.71.76-1.48,1.45-2.22,2.17a3.85,3.85,0,0,1-1.57.49,1.23,1.23,0,0,1-1.3-1h0C218.47,149.37,219.16,148.62,219.54,147.79Z"/><path class="cls-3" d="M77.11,1.48c0,.43.06.87.06,1.31V55c0,.52,0,1,.06,1.56a1.61,1.61,0,0,0,.88.53,2.06,2.06,0,0,0,2-.56c2.67-2.4,5.68-4.39,8.37-6.77,1.35-1.2,2.25-1.16,3.8-.24a35.38,35.38,0,0,1,5,3.84c1.66,1.44,3.46,2.71,5.2,4,1.35,1,2.1,1,3.44,0,2.43-1.94,5.11-3.55,7.42-5.65a15.15,15.15,0,0,1,3.18-2.11,2,2,0,0,1,1.85,0c.36.16.66.37.32.82a.77.77,0,0,1-.69-.08c-2,.1-3,1.69-4.4,2.67-2.83,2-5.55,4.16-8.36,6.2a1.74,1.74,0,0,1-2.11,0Q101,57.65,99,56.05c-2-1.6-4.07-3.23-6.11-4.84s-3.4-1.45-5.19.35a49.73,49.73,0,0,1-6.49,5.28,9.36,9.36,0,0,0-1.61,1.39c-.53.6-1.25.47-1.86.69a.47.47,0,0,1-.61-.43c-.1-.94-.65-1.74-.64-2.75q.06-23.75,0-47.51c0-1,.5-2,.4-2.87s.18-2,.1-2.95A4.23,4.23,0,0,1,77.11,1.48Z"/><path class="cls-4" d="M118,50.36h.72a1.46,1.46,0,0,1,1.35.58,9.33,9.33,0,0,0,1.59,1.22,2.8,2.8,0,0,0,1.51,1.1,35.61,35.61,0,0,1,4.61,3.59c2.14,1.7,2.87,1.71,4.86-.23s4.17-4.29,6.36-6.33c1.47-1.37,3-1.29,4.55,0a65.53,65.53,0,0,0,5.86,4.9c1.26.83,2.26,2,3.48,2.92,1.12.52,1.77-.33,2.47-.91,2.23-1.88,4.12-4.12,6.23-6.13a8.42,8.42,0,0,1,1.61-1.24,2.81,2.81,0,0,1,3.63.39c2.21,2,4.38,4,6.48,6a3.8,3.8,0,0,0,2.5,1.22l.24-.19c.31-.34.18-.85.47-1.19q0-26.62,0-53.25c.39.35.24.82.24,1.24q0,26.26,0,52.52c0,1.91-1,2.81-2.21,2a12.37,12.37,0,0,1-1.83-1.5c-2.14-2-4.24-4-6.38-5.92-1.29-1.17-2-1.17-3.3,0-2.2,2.09-4.39,4.19-6.52,6.35a12,12,0,0,1-2.17,1.67,1.7,1.7,0,0,1-2-.11c-1.13-.88-2.14-1.9-3.22-2.84-1.71-1.49-3.5-2.9-5.32-4.26-.6-.44-.84-1.2-1.69-1.43a2.3,2.3,0,0,0-2.5.51c-2.28,2.28-4.56,4.56-6.85,6.81-2,2-3.2,2-4.94.23-1.44-1.49-3.34-2.41-4.87-3.83S119.68,51.68,118,50.36Z"/><path class="cls-5" d="M103.13,159.06a28.15,28.15,0,0,1,6.27.57,22.71,22.71,0,0,0,3.7.31c6.51.25,13,.48,19.54.27,3.31-.11,6.64-.2,9.93-.52,3.58-.34,7.16-.85,10.7-1.45a53.11,53.11,0,0,1,6.25-1.11c-.22.8-.92.45-1.4.54-2.59.51-5.17,1-7.78,1.43-4.48.68-9,.84-13.51,1.29a133.05,133.05,0,0,1-18.51.24c-4.11-.16-8.25-.46-12.35-.94A9.55,9.55,0,0,1,103.13,159.06Z"/><path class="cls-6" d="M169.84,154.72a14.85,14.85,0,0,1,5.3-1.46A11.77,11.77,0,0,1,169.84,154.72Z"/><path class="cls-7" d="M171.3,140.6c-.27.74-.94.36-1.42.48a6.88,6.88,0,0,1-2.67.22C168.57,141.09,169.84,140.29,171.3,140.6Z"/><path class="cls-8" d="M218.81,150.4c.76,1.28,1.88.5,2.87.49a2,2,0,0,1-2.32.66A.89.89,0,0,1,218.81,150.4Z"/><path class="cls-7" d="M175.85,139.63a4.57,4.57,0,0,1-3.14.69C173.62,139.46,174.77,139.7,175.85,139.63Z"/><path class="cls-9" d="M190.73,135.78a7,7,0,0,1-3.83,1C188.15,136.33,189.33,135.64,190.73,135.78Z"/><path class="cls-5" d="M164.07,156.16c.9-.86,2.05-.62,3.12-.73A4.69,4.69,0,0,1,164.07,156.16Z"/><path class="cls-5" d="M159.52,157.13c1-.3,2-.91,3.15-.69C161.76,157.33,160.61,157.07,159.52,157.13Z"/><path class="cls-8" d="M219.54,147.79c0,.93-.78,1.66-.73,2.61-.2,0-.51-.1-.42-.27C218.8,149.36,218.59,148.29,219.54,147.79Z"/><path class="cls-10" d="M205.59,113.93a4,4,0,0,1-2.87,1A4.82,4.82,0,0,1,205.59,113.93Z"/><path class="cls-11" d="M184,150.16c.76-.93,1.85-.85,2.88-1A9.61,9.61,0,0,1,184,150.16Z"/><path class="cls-12" d="M176.79,152.55a2.89,2.89,0,0,1,2.18-.69C178.46,152.79,177.59,152.55,176.79,152.55Z"/><path class="cls-12" d="M179,151.86a2.74,2.74,0,0,1,2.15-.73C180.6,152,179.76,151.83,179,151.86Z"/><path class="cls-9" d="M195.05,134.36a2.58,2.58,0,0,1-2.19.67C193.42,134.25,194.26,134.37,195.05,134.36Z"/><path class="cls-13" d="M51.05,142c.68.22,1.44.33,1.74,1.14C52.08,143,51.34,142.85,51.05,142Z"/><path class="cls-14" d="M205.35,130.72c-.44.81-1.19.76-1.94.71C204.05,131.18,204.54,130.5,205.35,130.72Z"/><path class="cls-15" d="M207.06,130c-.37.74-1.06.68-1.72.68C205.89,130.42,206.32,129.85,207.06,130Z"/><path class="cls-16" d="M231.71,136.69c-.05-.69.43-1.13.76-1.63C232.42,135.69,232.59,136.43,231.71,136.69Z"/><path class="cls-11" d="M186.86,149.19c.3-.81,1-.62,1.65-.75C188,148.87,187.59,149.34,186.86,149.19Z"/><path class="cls-17" d="M62.11,134.33c-.46,0-1,.28-1.21-.47C61.36,133.87,61.92,133.61,62.11,134.33Z"/><path class="cls-18" d="M113,.22q30.89,0,61.75,0c1.12,0,1.09.54,1.09,1.32q0,26.81,0,53.6c0,.5-.18,1,.22,1.49a.7.7,0,0,1,0,.95l0,0a1,1,0,0,1-1.08-.33c-2.85-2.89-6.16-5.29-8.91-8.29-1.15-1.26-1.31-1.22-2.56,0-3.14,3.17-6.45,6.17-9.77,9.15a.71.71,0,0,1-.76-.22,93.11,93.11,0,0,0-7.68-6.63c-1.18-1-2.43-1.92-3.59-3-.72-.65-1.13-.15-1.6.3-2.77,2.65-5.4,5.45-8.16,8.11-1.38,1.32-1.94,1.44-3.38.24-3.26-2.7-6.73-5.12-9.89-7.93a1.36,1.36,0,0,0-1.93-.13c-1.91,1.44-4,2.7-5.76,4.29s-4.08,2.93-6.07,4.46c-.61.47-1.13.37-1.8-.12-3.21-2.31-6.15-4.95-9.35-7.27-.52-.37-1.17-.71-1.32-1.46a7.6,7.6,0,0,1,4.44-4.24,4.6,4.6,0,0,0,1.76-1.15c2.19-2,4.15-4.32,6.32-6.37,1-1,2.34-1.69,3.48-2.6a38.32,38.32,0,0,1,4.62-3.56,6.26,6.26,0,0,0,1.65-1.71,4.73,4.73,0,0,1,2.61-2c.67-.16,1-.76,1.44-1.22.92-1,2.16-1.67,2.54-3.1.08-.3.42-.63.7-.58,1.25.22,1.8-.7,2.41-1.43a5.67,5.67,0,0,1,3.15-2c1.16-.28,1.57-1.41,2-2.34a2.89,2.89,0,0,1,1.34-1.6c1.2-.52,2.19-1.5,3.55-1.7a1.28,1.28,0,0,0,.87-.6A18.69,18.69,0,0,1,138,9.83a2.19,2.19,0,0,0,.9-1.72c0-.85.71-1.15,1.4-1.19a3,3,0,0,0,2.2-1.41c1.2-1.46,3-2.28,4.32-3.62a2.82,2.82,0,0,1,2-.58c2,0,4.07-.09,6.11-.12-11.88.1-23.75.06-35.62.08a46.06,46.06,0,0,1-5.61-.52C113.47.72,113,.76,113,.22Z"/><path class="cls-19" d="M113,.22a23.35,23.35,0,0,0,5.75.67c12.07.06,24.15,0,36.22,0a1.91,1.91,0,0,1,1.71.46c-2.68-.1-5,.41-7.46.25a4.63,4.63,0,0,0-2.52.65c-.14.07-.36.12-.4.24-.73,2.06-3.58,2-4.2,4.16-.18.65-.87.38-1.35.48-.77.18-2,0-1.45,1.48.13.39-.29.62-.52.88-1,1.2-2.44,2.05-3.27,3.46a1.33,1.33,0,0,1-.88.56c-1.54.14-2.59,1.28-3.9,1.86-.22.09-.57.29-.55.41.13,1.23-1.16,1.71-1.4,2.72-.11.5-.45.6-.89.62a3.73,3.73,0,0,0-3.14,1.89c-.4.64-1.26.85-1.43,1.7,0,.26-.41.22-.6,0-.75-.77-1.21-.05-1.27.43-.09.92-.63,1.31-1.24,1.85a6.87,6.87,0,0,0-1.88,2,.79.79,0,0,1-.65.47c-1.53.08-2.17,1.28-3,2.29a6.62,6.62,0,0,1-2.79,2.29c-.44.16-.54.58-.85.78-.86.53-1.31,1.65-2.49,1.7-.07,0-.19.07-.2.12-.35,1.69-2,1.69-3.09,2.51a16.39,16.39,0,0,0-3.13,3.26c-1.07,1.51-2.81,2.29-3.81,3.88-.51.81-1.75.49-2.57,1.11a13.6,13.6,0,0,0-3.16,3.44c-.9,0-1.27-.67-1.66-1.32-.08-.37-.13-.76-.74-.9.26.3.46.55.34.88a2,2,0,0,1-1.54.95c-1-.2-1.58.37-1.59,1.42,0,.51-.29.7-.72.78a5.28,5.28,0,0,1-.68-.09c-1-.06-1.09.16-.75,1.1-.13.69-.75.61-1.21.8-.66.31-1.72.13-1.64,1.35a2.54,2.54,0,0,1-2,1.45,2.49,2.49,0,0,0-1.27.06c-.55.1-1.11.13-1.44-.47q0-26.8,0-53.6c0-.67,0-1.14.92-1.13Q95.82.22,113,.22Z"/><path class="cls-18" d="M77.7,54.91a1.94,1.94,0,0,0,1.91,0c.34-.18.67-.33.75.26a.53.53,0,0,1-.23.8A11.27,11.27,0,0,1,78,57.4c-.47-.06-.92-.14-.75-.8C78.09,56.23,77.52,55.47,77.7,54.91Z"/><path class="cls-20" d="M176.11,57.54l0-.95c0-.25.14-.47.44-.51C176.41,56.57,176.93,57.25,176.11,57.54Z"/><path class="cls-21" d="M78,57.4a5.92,5.92,0,0,1,1.74-1.49c.32-.17.66-.28.64-.73a4,4,0,0,0,1.94-1.44c.35-.73,1.12-1,1.7-1.45.27-.4,1-.08,1.11-.74.32-.58.67-1.11,1.45-1,.32-.12.71-.17.72-.65.19-.92,1-1.16,1.7-1.44l1.43-1c.26-.16.52-.26.71.1a5.3,5.3,0,0,0,1.5,1.33c2.78,2.23,5.55,4.49,8.37,6.66a17.63,17.63,0,0,1,2.15,1.6c.72.76,1.41.52,2.09,0,3.85-2.9,7.68-5.83,11.54-8.71a1.4,1.4,0,0,1,1.93.17c2.66,2.3,5.45,4.43,8.24,6.54.84.64,1.59,1.37,2.41,2a1.24,1.24,0,0,0,1.82,0c3-3,6.07-6,9.08-9,.62-.63,1-.73,1.72-.07,3.42,3,6.92,5.83,10.43,8.67.48.39.55,1.23,1.35,1.22-.09.81-.54.49-.95.3A6.06,6.06,0,0,1,151,56.9c-1.8-1.76-4.06-2.95-5.78-4.81-.62-.66-1.43-1.15-2.08-1.79a2.66,2.66,0,0,0-3.52-.1c-2.37,2.34-4.72,4.69-7.08,7-1.6,1.58-3.17,1.53-4.79,0a43.26,43.26,0,0,0-4.65-3.77c-.5-.38-1-.8-1.44-1.2-1.27-.17-1.74-1.55-2.88-1.92a1.46,1.46,0,0,0-2.15-.41c-2.25,1.29-4.1,3.15-6.23,4.61-1.93,1.33-3.63,3-5.76,4-.67.32-1.36-.25-1.81-.56-1.88-1.29-3.67-2.72-5.44-4.16a46.54,46.54,0,0,0-6.09-4.54c-1-.59-2,.16-2.68.79-2.68,2.57-5.94,4.41-8.58,7A1.73,1.73,0,0,1,78,57.4Z"/><path class="cls-20" d="M152.8,58.27c.34,0,.74.13.95-.3,1.24-1.61,2.93-2.75,4.32-4.21,1.88-2,4-3.76,5.9-5.68.59-.59.94-.62,1.55,0,2.63,2.5,5.25,5,8,7.38.84.72,1.45,1.75,2.56,2.15-.08.43-.26.41-.67.3-1.87-.5-3-2-4.23-3.26-1.4-1.45-3.05-2.61-4.44-4.06s-2.68-1.3-4.56.42c-2.4,2.19-4.52,4.65-6.93,6.83a8.14,8.14,0,0,1-1.88.91C153.09,58.85,152.84,58.62,152.8,58.27Z"/><path class="cls-3" d="M121.61,52.27c.8,0,1.12.61,1.44,1.2A1.51,1.51,0,0,1,121.61,52.27Z"/><path class="cls-18" d="M89,48.43c-.38.69-1.19.89-1.7,1.44-.52-.12-.49-.33-.22-.75s1-.82,1.43-1.34S88.93,48.08,89,48.43Z"/><path class="cls-18" d="M86.56,50.52c-.6.17-.79.93-1.45,1-.25-.22-.79-.6-.53-.73s.65-.77,1.21-.61C86.05,50.29,86.3,50.42,86.56,50.52Z"/><path class="cls-18" d="M84,52.29a2.81,2.81,0,0,1-1.7,1.45c-.34-.33-.48-.78,0-.92S83.35,52.12,84,52.29Z"/><path class="cls-18" d="M91.12,47.57l-.71-.1c0-.56-.66-.49-.78-.92C90.78,46.16,91.25,46.48,91.12,47.57Z"/><path class="cls-18" d="M130,14.1c0,.22-.08.44-.31.39s-.64-.17-.59-.59c0-.25.2-.45.47-.41S130,13.81,130,14.1Z"/><path class="cls-18" d="M138.12,8.45a.44.44,0,0,1,.39.51c0,.29-.11.68-.51.67-.25,0-.31-.32-.3-.57A.56.56,0,0,1,138.12,8.45Z"/></g></g></svg>