<svg xmlns="http://www.w3.org/2000/svg" viewBox="0 0 242.56 242.93"><defs><style>.cls-1{fill:#f6e730;}.cls-2{fill:#f6da25;}.cls-3{fill:#fbd613;}.cls-4{fill:#fdcc06;}.cls-5{fill:#f7f1b3;}.cls-6{fill:#fae506;}.cls-7{fill:#f6e72f;}.cls-8{fill:#faec8b;}.cls-9{fill:#fee276;}.cls-10{fill:#f3db00;}.cls-11{fill:#77b7e6;}.cls-12{fill:#027bd3;}.cls-13{fill:#f8de21;}.cls-14{fill:#fcfcfc;}.cls-15{fill:#0269b3;}.cls-16{fill:#cec028;}.cls-17{fill:#fcfcfb;}.cls-18{fill:#096baf;}.cls-19{fill:#dfd12e;}.cls-20{fill:#f5c72e;}.cls-21{fill:#f6ca3c;}.cls-22{fill:#f7bd04;}.cls-23{fill:#f5aa03;}.cls-24{fill:#f6e62f;}.cls-25{fill:#ee9f20;}.cls-26{fill:#ee9e1f;}.cls-27{fill:#fad005;}.cls-28{fill:#fcd20d;}.cls-29{fill:#f9d81c;}.cls-30{fill:#056ab2;}.cls-31{fill:#f5e62f;}.cls-32{fill:#bfb225;}.cls-33{fill:#ad8828;}.cls-34{fill:#ad8829;}</style></defs><g id="Layer_2" data-name="Layer 2"><g id="Layer_1-2" data-name="Layer 1"><path class="cls-1" d="M242.56,40.49V97.17c-8.94,6.61-10,16.77-11.65,26.53a97.45,97.45,0,0,0-.33,31.7c.63,3.95-.6,6.83-4.16,9.21-6,4-12.53,6.66-19.17,9.17a15.06,15.06,0,0,1-8,.32c-5.92-2.81-12.25-1.87-18.46-2-2.2-.07-4.57.49-6.44-1.3a3.25,3.25,0,0,1-.5-2.32c1.54-8.59,2.27-17.43,6-25.47,4.92-10.72,13.36-16.55,25.31-16.92,4.15-.12,8.33.28,12.43-.82,3.91-1,5.47-2.51,5.18-6.48-.53-7.21-1-14.57-6.61-20.14-5.46-3.65-11.67-3-17.63-2.59-13.54.85-26.14,4.72-37.26,12.84-13.09,9.57-20.86,22.62-25.14,38-1.77,6.38-2.54,13-4,19.42-1.12,5.07-1.79,5.66-7.09,5.68-9.15.05-18.32-.17-27.47.07a281.46,281.46,0,0,0-29.67,2.84,8.74,8.74,0,0,1-4.1-.1A14.69,14.69,0,0,0,56,173.5c-5.63.33-11.35.69-16.9,0a60.48,60.48,0,0,1-26.63-10.64c-2.62-1.8-2.1-4.61-2-7.36.64-12.74,1.66-25.53-2-38-.83-2.81-1.57-5.68-3.75-7.86-1.72.49-1.41,2.3-2.4,3.12-.67.56-1.44,1.64-1.94-.16C.46,88.75.35,65,.46,41.22c1.13-2.4,3.36-1.91,5.29-1.91,11.72,0,23.43-.14,35.14-.14q82.6,0,165.21,0c10.36,0,20.73.12,31.09.11C239.06,39.29,241,39.05,242.56,40.49Z"/><path class="cls-2" d="M199.44,173.4c11,.1,19.8-5.56,28.52-11.21,3-1.95,1.6-5.37,1.29-8.23-1.91-17.58-.84-34.76,6.45-51.17a9.27,9.27,0,0,1,6.86-5.62V190.3a4.63,4.63,0,0,1-3.34,1.13c-3.93-.15-7.66,1.42-11.41,1.69-7.22.51-14.06,3-21.28,3.23-3.23.09-5.77-.89-7.2-4-.88-2.27-.12-4.52.31-6.71a19.78,19.78,0,0,0-.48-10.3A2.63,2.63,0,0,1,199.44,173.4Z"/><path class="cls-3" d="M199.68,191.93c3.87,4.9,8.92,3.75,13.75,2.33,2.72-.8,5.31-1.76,8.19-1.54a16.65,16.65,0,0,0,8.24-1.3c4.1-1.83,8.45-.9,12.7-1.12v27.53c-3.92,2-8.29,2.14-12.47,2.66-18.83,2.35-37.76,1.95-56.68,1.81-4.93,0-5.93-.89-7.54-5.57-.77-4.1.49-8,1.35-11.88.51-2.3,2.44-2.64,4.39-2.7,4.29-.13,8.58-.15,12.86,0,5.76.16,10.24-1.61,12.57-7.32A4.41,4.41,0,0,1,199.68,191.93Z"/><path class="cls-4" d="M166.51,216.22c1,4.35,4,5,8.06,4.94,11.4-.25,22.83.37,34.2-.24,9-.48,18.1-.71,27-2.78,2.17-.51,4.53-.23,6.8-.31V234c-2.15,6.33-5,8.41-11.76,8.49H163a2.66,2.66,0,0,1-1.41-.29c-.15-.22-.39-.45-.38-.68.39-8.27,2.12-16.32,4.11-24.32C165.45,216.72,166,216.44,166.51,216.22Z"/><path class="cls-5" d="M242.56,40.49c-1.75,0-3.5.11-5.25.12q-115.72,0-231.46,0c-1.69,0-3.51-.6-5.07.65-.25.36-.51.39-.78,0V34.82A1.09,1.09,0,0,1,1.32,35a5.46,5.46,0,0,0,4.27,1.83c9.31-.21,18.67.72,28-.79,15.78-.16,31.56-.07,47.33,0q44-.16,88,0c10.8.07,21.59-.14,32.39,0,11.86.35,23.7,1.34,35.58.95,2-.06,4-.37,5.74,1.12Z"/><path class="cls-6" d="M211,0c3.7,2.2,7.93,3.1,11.84,4.79,1.49.65,3.19,1,2.58,3.3a2.66,2.66,0,0,1-2.18.61c-10.33-5.36-21.48-5.09-32.7-5.06q-72.91.21-145.83,0c-7.29,0-14.19.82-20.79,4a12.66,12.66,0,0,1-3.82,1.28A2.62,2.62,0,0,1,18,8.06c-.6-2.27,1.17-2.6,2.61-3.25C24.47,3.08,28.71,2.29,32.34,0Z"/><path class="cls-7" d="M225.57,23.46l17,11.36v1.62c-.34.21-.64.55-1.05.56-9.57.24-19.15.75-28.71-.27-2.17-2.44-1.21-5.38-1.33-8.15.25-4.3-.82-8.7.81-12.91a2.12,2.12,0,0,1,2.93-.31C218.82,17.85,223.11,19.49,225.57,23.46Z"/><path class="cls-8" d="M0,41.3H.78q.06,36,.13,72.06c1.5,1.69,1.19,3.79,1.19,5.77,0,20.69.15,41.39-.07,62.09.1,7.85.15,15.7,0,23.55.18,7.5.07,15,.06,22.5a7.77,7.77,0,0,1-.74,3.91A1,1,0,0,1,0,231.6Z"/><path class="cls-9" d="M117.24,242.93H11.32a1,1,0,0,1,.46-1.33c1.89-1,3.94-.77,5.94-.77q46.46,0,92.89,0c2,0,4.06-.22,6,.75A1.4,1.4,0,0,1,117.24,242.93Z"/><path class="cls-10" d="M212.66,36.44h29.9v1.62l-12-.24-29.2-.66C203.75,34.69,208.31,34.4,212.66,36.44Z"/><path class="cls-9" d="M161.89,242.16l70.22,0c.22.18.29.35.19.51s-.17.22-.25.22H161.71C161.45,242.6,161.51,242.34,161.89,242.16Z"/><path class="cls-11" d="M161.89,242.16l-.18.77H117.24l-.27-.78a2.44,2.44,0,0,1,1.14-.78,19.25,19.25,0,0,1,3.55-.44c11.65-.18,23.3-.07,35-.07,1.72,0,3.52-.15,5,1.11Z"/><path class="cls-12" d="M161.58,242l-41.12,0c-1.38-1.54-.84-3.3-.55-5,1.65-9.57,3.49-19.1,5.06-28.68.29-1.75,1.22-4-2.09-3.91-9.07.22-18.13.1-27.19.11-2.75-.33-5.53.08-8.27-.39-5.56-1.25-11.2-.09-16.8-.46-1.68-.19-3.4,0-5.07-.38-3.27-1.06-6.63-.21-9.93-.47-3.66-.21-7.34.19-11-.3-4.32-1.22-8.73-.15-13.08-.5-1.47-.47-3.73.51-4-2.17,1.8-1.38,4-1.58,6.09-1.64,11.06-.35,22.08-1.29,33.12-1.86,3.25.09,6.51.43,9.72-.32,3.8-.86,7.77.22,11.58-.87.14-2-1.36-1.92-2.44-2.1-3.58-.59-7.15-1.27-10.76-1.69-1.86-.22-3.92-.31-4-3,.81-1.65,2.4-1.59,3.84-1.64,3.1-.1,6.13-.88,9.23-.93.9,0,2,0,2.2-1.27.11-1.06-.66-1.71-1.55-2.14a11.25,11.25,0,0,0-3.52-.84c-8.25-1.22-16.49-2.51-24.74-3.71a20,20,0,0,1-2.79-.44c-.9-.26-1.94-.52-1.94-1.7s1-1.62,1.93-1.68c3.46-.23,6.91-1.29,10.38-.08l3.81,0c19.6-.45,39.21-.19,58.81-.26,5.49,0,5.49,0,6.43-5.4,2.06-11.81,3.8-23.72,9.09-34.67,10.4-21.54,27.27-34.08,51.18-36.93a88.47,88.47,0,0,1,17.67-.46,21.86,21.86,0,0,1,6.2,1.54c2,.94,2.93,2.81,3.59,4.68a58.33,58.33,0,0,1,3.49,15.71c.33,5.16-1.27,7.11-6.25,8.19a53.81,53.81,0,0,1-11.26.73c-13.79,0-22.79,6.57-27.19,19.71-2.54,7.57-3,15.57-4.94,23.28.37,2.8,2.13,3.66,4.74,3.64,5.19-.05,10.38,0,15.57,0,1.72,0,3.49-.14,4.94,1.11,2.83,4.54,1.19,9.25.54,13.92-.15,1-.41,2.09-.61,3.13-.8,1.69-1.51,3.43-2.41,5.07a11.09,11.09,0,0,1-10.49,6.22c-5.24-.06-10.48,0-15.72,0-1.4,0-2.65-.07-2.89,1.89-.46,3.72-1.1,7.42-1.66,11.13l-4,21.06C162.22,238.85,161.9,240.41,161.58,242Z"/><path class="cls-13" d="M63.87,174l-11.42,1.49-.08.57c6.5,1,13,2,19.49,2.95,4.11.62,8.24,1.18,12.35,1.8,1.6.24,2.93.53,3.52,2.59.75,2.62.41,3.54-2.52,3.73-4.73.3-9.55,0-14.15,1.59a16.08,16.08,0,0,1-11.59,3.62,73.57,73.57,0,0,0-10.07,0c-12.91.87-24.69-2.91-35.94-8.68-4.06-2.08-8-3.73-12.55-2.23v-68a4.8,4.8,0,0,0,1.5-3.21c.09-1.2-.1-2.69,1.5-2.9,1.4-.18,2,1.13,2.59,2.19A46.33,46.33,0,0,1,12,131.08c.14,8.86.93,17.78-.66,26.61a4,4,0,0,0,2.21,4.69,122.78,122.78,0,0,0,17.74,8c9.08,3.21,18,1.76,27,1.62A8.36,8.36,0,0,1,63.87,174Z"/><path class="cls-14" d="M69.59,70.87c-1.38-4.14-3-8.2-3.48-12.6a7.43,7.43,0,0,1,0-7.24c.7-2,1.87-3.43,4.14-3,2,.43,3.46,1.75,3.26,4C72,69.94,87.6,85.65,106,90.61c18.19,4.9,35.37,2.53,50.87-8.81,3.83,1.06,5,2.6,4.69,6.16-1.1,2.14-3,3.35-5,4.55-20.43,11.5-41.32,12.29-62.65,2.71-1.84-.83-3.61-1.8-5.39-2.74a64,64,0,0,1-13.81-12C72.85,77.33,70.38,74.55,69.59,70.87Z"/><path class="cls-15" d="M217.06,97.83c-15-1.71-29.79-.94-43.71,5.38S149.6,120.29,143,134.15c-5.72,12.07-7.27,25.15-9.55,38-.36,2.06-1,2.74-3,2.74-19.51-.05-39,0-58.52-.08a22,22,0,0,1-4.32-.85,173.57,173.57,0,0,1,26.38-2.85c10.63-.28,21.27-.28,31.89.06,3.64.11,4.46-1.35,5-4.39,1.64-9.39,3-18.89,6.49-27.84q15.09-38.15,55.73-43.5c6.15-.8,12.31-1.28,18.47,0C213.61,95.84,215.58,96.28,217.06,97.83Z"/><path class="cls-16" d="M156.75,91.33,161,87.81c3-3.77,6.38-7.18,9-11.22.5-.77,1.08-1.57,2.17-1.57-.49,7.71-5,13.56-9.56,19.08-12.34,14.86-28.79,20.08-47.47,18.3-9.48-.91-18-5.11-25.4-11.17A60.85,60.85,0,0,1,75.21,84c-.77-1.33-1.32-2.66,0-4,4.24,3.83,8.22,8,13,11.19C107.23,108.72,137.82,108.79,156.75,91.33Z"/><path class="cls-17" d="M172.17,75c-3.26,4.67-6.33,9.51-11.18,12.79.7-3.42-2.36-4.27-4.11-6,5.62-5.72,10.11-12.08,11.69-20.17a32.49,32.49,0,0,0,.54-8c-.11-2.24-.06-4.51,2.26-5.55s4,.47,5.51,2.17c2,2.33,1.7,4.77.34,7.25C176.74,63.7,174.72,69.44,172.17,75Z"/><path class="cls-18" d="M199.75,174.88c-7.12,0-14.25-.19-21.35.11-4,.18-5.34-1-3.9-4.87.87,1.56,2.36.91,3.58.93,4.65.08,9.3,0,13.94,0a10.91,10.91,0,0,1,7.42,2.32C199.54,173.89,199.64,174.39,199.75,174.88Z"/><path class="cls-19" d="M75.24,80c.56,6.26,5,10.3,8.56,14.82,1.79,2.29,4,4.29,5.94,6.43-5-2.42-8.18-6.75-11.25-11-4.19-5.82-8.34-11.79-8.9-19.34Z"/><path class="cls-20" d="M177.22,57.51c-.11-2.41-.23-4.83-.34-7.25,1.54-.09,3.13,0,3.31,2C180.41,54.57,180,56.78,177.22,57.51Z"/><path class="cls-21" d="M66.15,51q0,3.61,0,7.24a13.3,13.3,0,0,1-1.23-1C61.63,53.9,61.84,52.87,66.15,51Z"/><path class="cls-22" d="M212.66,36.44c-3.76.35-7.61-.76-11.3.72L169,37.21c1.42-3,.09-4.16-2.74-5a102.08,102.08,0,0,0-25.46-4.11c-17.74-.56-35.56-1.27-53.08,2.86A47.55,47.55,0,0,0,83,32.2c-4,1.36-4,1.42-2.17,5l-47.69,0c-2.71-.46-4-1.81-3-4.68,2.8-3.4,6.9-4.58,10.73-6.09a75.58,75.58,0,0,1,14.7-4.3c3.81-.67,7.65-1.3,9.61-5.33,1.31.63,1.15,2,1.46,3.08a5,5,0,0,0,4.11,3.85c2,.38,3.59-.59,4.81-2.15.89-1.14,1.48-2.57,3-3.06,5-1.52,10.11-1.4,15.17-1.73,22.09-1.45,44.19-1.69,66.27.54a16.05,16.05,0,0,1,4.7,1,6.86,6.86,0,0,1,2.82,2.73q4.11,5.6,8.88.54c.73-.78,1.3-1.72,2.52-1.79,11.63,1.28,23,3.52,33.67,8.54Q212.66,32.39,212.66,36.44Z"/><path class="cls-23" d="M80.85,37.21l-1.73-.91c-.91-.47-2.23-.61-2.13-2,.08-1.13,1.21-1.37,2-1.75,5.14-2.45,10.74-3.17,16.25-4.16,14.49-2.61,29.15-1.8,43.72-1.49a95.9,95.9,0,0,1,29.12,4.82c1.6.55,4,.93,4.26,2.61s-2.57,1.48-3.37,2.91Z"/><path class="cls-24" d="M30.75,32.39c-.3,2.17,0,4,2.41,4.84-10,1.54-20,.35-30.07.74C.64,38.07.54,36.65.85,34.85,6.51,30.74,12.79,27.52,18,22.73c2.83-3,6.55-4.86,9.87-7.22a2.29,2.29,0,0,1,3.25.19C32.35,21.3,32.78,26.87,30.75,32.39Z"/><path class="cls-25" d="M29.94,15.37c-4.22,2.08-7.36,5.92-12,7.36q0-7.34,0-14.67l1.39,0c2.75.43,5.57.7,8,2.17C29.25,11.4,31.08,12.68,29.94,15.37Z"/><path class="cls-26" d="M225.57,23.46l-12.13-8.1c-1.15-2.68.65-4,2.53-5a17.53,17.53,0,0,1,8-2.2l1.47,0Z"/><path class="cls-27" d="M224,8.11c-1.72,1.42-3.91,1.68-5.91,2.32-2.56.81-4.26,2.18-4.63,4.93-1.69,4.24-.33,8.67-.8,13a10,10,0,0,1-4.69-.88A122.21,122.21,0,0,0,180,21c-.47-.05-.88-.51-1.32-.79-1-.84-1-2.14-1.59-3.18-2.48-4.53-6.49-4.75-9.41-.53-.68,1-.87,2.27-2,3-18.6-2.76-37.35-2.71-56.06-2.31-10.65.23-21.28,1.5-31.92,2.3-.77-.45-.89-1.29-1.23-2-2.16-4.53-5.51-5.19-9.28-1.84-.59.53-1.06,1.24-1.91,1.42-.26,3.61-2.35,4.92-5.8,5.49a86.36,86.36,0,0,0-28.74,9.91c0-4.41,0-8.83-.05-13.24,0-1.29.43-2.71-.76-3.78-.38-3-2.32-4.24-5-5.06-1.88-.57-4-.81-5.54-2.2,9.16-4.77,18.87-5.88,29.16-5.82q75.75.45,151.51,0A50.44,50.44,0,0,1,224,8.11Z"/><path class="cls-28" d="M11.26,242.18C5.48,241,2,237.38.7,231.67q.09-13.38.2-26.78A5.91,5.91,0,0,1,6,202.94c4.55.37,9.2.21,13.64,1.26a74.55,74.55,0,0,0,17.61,1.86c23.29-.08,46.59,0,69.89,0,5.46,0,11,.66,16.08-2.32,1.76.87,1.38,2.47,1.17,3.87-1.56,10.47-3.74,20.84-5.45,31.3A5.42,5.42,0,0,1,117.3,242l-.33.13Z"/><path class="cls-29" d="M123.66,204.07c-4.07,4.38-9.39,3.22-14.42,3.23-24.74,0-49.48,0-74.22,0-5.4,0-10.58-1.14-15.86-1.91-6-.86-12.13-2.35-18.26-.53q0-11.76,0-23.52c3.43-4.16,7.34-2,10.45-.08,7.33,4.48,15.45,6.63,23.51,9,6.69,1.94,13.65.77,20.48.75,4.33,0,9.12,1.75,13-2.14.48-.49,1.81-.14,2.75-.18,2.46,3,6.1,1.26,9.13,2.07,2.37.64,5,1.47,7.68,1.13,1.57-.2,2.54,1.57,2.57,3.06,0,1.79-1.48,1.85-2.89,1.85-3.47,0-6.94,0-10.41.07-3.3.88-6.73-.28-10,.65L27.48,200a2.26,2.26,0,0,1-1.89.75c2.07.25,4,.9,5.92.16,4.41,0,8.84-.25,13.22.57-2,1.18-4.16.1-5.9.55,5.42-.17,11.18.33,16.94-.3a44.16,44.16,0,0,1,10,.54c-1.32,1-2.66.42-4,.5,2.84-.13,5.69.51,8.55-.35,5.76,0,11.53-.24,17.25.68A8.63,8.63,0,0,1,83,204c3.49-.85,8,.18,12.36-.65l28.46-.09A.58.58,0,0,1,123.66,204.07Z"/><path class="cls-30" d="M123.66,204.07l.18-.83c2.38-.16,3.3.43,2.78,3.25-2.17,11.82-4.71,23.58-6.16,35.52H117.3q3-17,5.9-34C123.43,206.73,123.51,205.39,123.66,204.07Z"/><path class="cls-28" d="M95.38,203.33c-4.81,1.15-9.65,1-14.48,1.09l0-1.29h6.7Z"/><path class="cls-28" d="M55.77,201.76c-5.61,1.62-11.28.13-16.93.07l5.89-.32Z"/><path class="cls-28" d="M31.51,200.94c-3,1.28-6.08.74-10.26.18,2.66-1.53,4.51-.9,6.23-1.09C28.55,201.57,30.24,200.32,31.51,200.94Z"/><path class="cls-13" d="M67.12,197.51c3.25-1.55,6.68-.42,10-.65C73.84,197.78,70.47,197.5,67.12,197.51Z"/><path class="cls-28" d="M70.33,202.45c-2.87,1.66-5.88.53-8.85.21l4.3-.36Z"/><path class="cls-31" d="M156.75,91.33c-6,8-14.57,11.4-24,13.11-9.92,1.81-19.8,1.49-29.16-2.48-5.81-2.46-12-4.71-15.41-10.79,10.07,5.67,20.71,9.23,32.43,9.35C133.53,100.65,145.62,98,156.75,91.33Z"/><path class="cls-32" d="M146.76,104.12c-14.7,8.43-28.75,10.22-43.38,3.09-1.25-.61-3.29-1.23-2.51-3,.56-1.26,2.38-.48,3.66-.1,12.55,3.67,25.09,2.81,37.63,0a21.25,21.25,0,0,1,2.36-.43A12.46,12.46,0,0,1,146.76,104.12Z"/><path class="cls-33" d="M165.69,19.43c.77-4.41,3.48-7.34,6.68-7.21,3.4.14,6,3.41,6.28,8-3.16,4.92-6,6.06-9.67,4.11C167,23.2,166.6,21.17,165.69,19.43Z"/><path class="cls-34" d="M65.29,17c1.19-3.06,3.38-5.14,6.68-4.61,3.67.59,5.89,3,5.74,7-1,3.63-3,6-7.06,5.59C67.21,24.67,65.57,22,65.29,17Z"/></g></g></svg>