<svg xmlns="http://www.w3.org/2000/svg" viewBox="0 0 254.51 254.49"><defs><style>.cls-1{fill:#d2145a;}.cls-2{fill:#d93571;}.cls-3{fill:#fefefe;}</style></defs><g id="Layer_2" data-name="Layer 2"><g id="Layer_1-2" data-name="Layer 1"><path class="cls-1" d="M203.54,0h1.32C213.77,1.87,223,1.93,231,7.81c15.49,11.4,23.59,26,23.52,45.45q-.3,73.67,0,147.35c.12,22.41-10.47,37.95-29.09,48.92-7.72,4.56-16.51,4.72-25,4.77-49.11.24-98.23-.05-147.35.19-21.49.11-36.77-9.66-47.88-27.43-3.82-6.1-3-13.17-5.2-19.56V47.58C1.21,27.66,11.71,14,28.65,4.42,34.59,1.08,41.43,2.13,47.58,0h2.64c1.61,1.06,3.42.64,5.14.64q71.52,0,143,0C200.12.64,201.93,1.06,203.54,0Z"/><path class="cls-2" d="M203.54,0c-2,1.89-4.53,1.33-6.89,1.33q-69.77,0-139.54,0c-2.36,0-4.87.56-6.89-1.33Z"/><path class="cls-3" d="M148.64,132c-2.51,9.92-4.9,19.22-7.21,28.53-3,11.86-4.81,13.33-17.32,13.35q-7.59,0-15.19,0c-1.08,0-2.4.1-2.84-1.12s.48-2,1.37-2.72c3.92-3.28,5.43-7.83,6.64-12.59q7.71-30.34,15.52-60.65c1.44-5.61,2.57-11.13-.88-16.56-1.49-2.34-.45-3.63,2.37-3.55,20.44.63,41-1.49,61.33,1.24,9.94,1.34,18.19,5.58,20.93,16.32s-2.37,18.3-10.22,24.61-17.06,9.73-28.28,11.6c9.89,7.71,12.85,18.33,17.24,28.17a90.82,90.82,0,0,0,5.25,9.89c9.84,16.33,18.06,19.64,36.31,14.73,1.84-.5,4-2.07,5.16.49,1.43,3.22-1.93,3.37-3.59,4.28-24.19,13.18-52.89,5.64-67.44-17.61-6.22-9.94-10-21-14.57-31.68C152.29,136.53,151.92,134,148.64,132Z"/><path class="cls-3" d="M104.69,149.72c.62,1.65.79,1.86.75,2C101,174,101,174,78.29,174c-16.93,0-33.87,0-50.8,0-1.61,0-3.83,1-4.72-1.11s1.17-3.06,2.3-4.31a25.33,25.33,0,0,0,5.44-11.12q8.5-34.18,17.1-68.34c2.62-10.48,5-12.38,16-12.39,5.28,0,10.56,0,15.83,0,1.19,0,2.76-.65,3.45,1,.51,1.2-.33,2.14-1.13,2.85-5.26,4.69-6.59,11.11-8.28,17.54-5.86,22.25-10.4,44.83-17.29,67.12,8.8.3,17.06-1.95,25.25-4.38S97.14,154.3,104.69,149.72Z"/><path class="cls-1" d="M150.85,124.74c2.67-11.08,5.54-22.09,7.94-33.2,1.92-8.9,1.67-9,11.35-8.41,12.11.68,18.19,8.57,15.79,20.54C182.89,118.9,168.94,127.37,150.85,124.74Z"/></g></g></svg>