<svg xmlns="http://www.w3.org/2000/svg" viewBox="0 0 256 255.52"><defs><style>.cls-1{fill:#f25823;}.cls-2{fill:#ee5b26;}.cls-3{fill:#fcf8f2;}.cls-4{fill:#fbf7ef;}.cls-5{fill:#faf8f3;}.cls-6{fill:#e06835;}.cls-7{fill:#d66a41;}.cls-8{fill:#d36940;}.cls-9{fill:#da7242;}.cls-10{fill:#d26d4a;}.cls-11{fill:#d86531;}.cls-12{fill:#de6b3e;}.cls-13{fill:#fefcfd;}.cls-14{fill:#fbf9f1;}.cls-15{fill:#be7a56;}.cls-16{fill:#ce8168;}.cls-17{fill:#fdf8f3;}.cls-18{fill:#fcedd7;}.cls-19{fill:#fcf9f4;}.cls-20{fill:#ea5d29;}.cls-21{fill:#d96f4b;}.cls-22{fill:#e65c2e;}.cls-23{fill:#c87551;}</style></defs><g id="Layer_2" data-name="Layer 2"><g id="Layer_1-2" data-name="Layer 1"><path class="cls-1" d="M219,255.52H36a29.33,29.33,0,0,0-8-1,38.16,38.16,0,0,1-18-12.41c-3.74-4.62-8.36-9-9-15.55-.38-2.66-.15-5.4-1-8v-184C2.37,19.18,11.32,8.89,24.9,2.17A11.34,11.34,0,0,1,29.57.58c2.57,0,5.07-.79,7.66-.53h165.9c6.49,0,13-.22,19.45.49a17.83,17.83,0,0,1,9.08,1.83c12.48,6.06,20.5,15.87,24.34,29.16v184a46.57,46.57,0,0,1-7.75,21.21c-5.8,8.84-14.35,13.9-24.09,17.3C222.46,254.62,220.43,254,219,255.52Z"/><path class="cls-2" d="M127.4,177.53q-25.75,0-51.5,0c-7,0-9.25-1.93-8.76-8.84.32-4.39-1.51-8.15-2.52-12-2.53-9.56-3-19.25-3.51-28.95a11,11,0,0,0-2.83-7.2c-2.36-2.53-1.58-5.29-2-8.19-.9-6.92,3.1-13.89-1.26-20.87-2.81-4.51-1-10,.5-15,1-3.12,3.51-3.36,6.09-2.8,8.42,1.81,16.93.53,25.38.78,4.24.13,4.39-4,4.68-6.49.67-5.47,2.68-10.6,3.39-16a3.53,3.53,0,0,1,.9-2.27c5.36-3.77,8.23-9.91,14-13.52,9.55-6,19.81-5.6,30.22-5.34a4.23,4.23,0,0,1,3.11,1.35c4.05,6.55,11.12,10.29,15.36,16.63,2.12,3.17,4.69,6.35,4.21,10.39-.7,5.93,4.12,9.52,5.6,14.5.37,1.23,2,.87,3.17.82,7.95-.41,16,1,23.87-.88,2.53-.59,4.25.66,5,3.06,2.17,7.36,2.34,14.7-.57,22-1.82,4.51-4.53,8.93-1.26,13.93a1.5,1.5,0,0,1-.08,1.4c-3.78,3.62-1.14,8.8-3.25,13.07-1.39,2.8-2.16,7,.89,10.19a4.35,4.35,0,0,1,.55,4.31c-1.4,4.44-2.08,9.05-3.18,13.5-.88,3.55-4.31,6.48-4.21,10.71a5,5,0,0,1-.26.95c-1.91,10.83-1.91,10.83-12.76,10.83Z"/><path class="cls-3" d="M172.9,220.3l-1.08.78c-4.76,1.67-6.51.74-6.75-3.94-.23-4.32,0-8.66-.1-13,0-1.53.65-3.91-1.71-4-2.61-.12-1.69,2.35-1.73,3.81-.12,3.65,0,7.32,0,11,0,6.76-.32,7-7.54,5.8-1.52-1.81-.5-3.87-.37-5.75.42-6.17-1.66-12.14-1.1-18.32.47-5.21.79-5.61,5.85-5.64,6.09,0,12.16.48,18.27.09,6.91-.44,8.54,2.08,9,8.57A168.73,168.73,0,0,1,185.7,218c-.92,2.85-2.67,4.59-5.88,3.95s-4-3.14-4.18-5.95c-.31-4.28.15-8.58-.68-12.89-.61,3.55-.38,7.14-.52,10.72C174.35,216,174.9,218.48,172.9,220.3Z"/><path class="cls-4" d="M114.32,191.66l6.55-.08c2.9,2.8.29,7,2.63,10.3,2.35-3.24-.27-7.48,2.61-10.29l-.08,0c7.55-1.55,9.41-.19,8.33,7.08a80.94,80.94,0,0,0-.63,15.78c.18,3.75-2.29,6-5.89,6.86l.07-.08c-3.12,1.62-6.48.81-9.65.58-3.75-.27-4.38-4.15-1.68-8.54,1.2-.95,2.62-.84,4.33-.74a9,9,0,0,1-5.13-2.06C110.94,204.57,111.9,198.17,114.32,191.66Z"/><path class="cls-5" d="M111.19,219.57a1,1,0,0,0-.28.73c-4.91,2.33-10.18,1.78-15,.57-5.28-1.32-4.48-6.87-5.07-10.92-.53-3.71,1.49-6.71,4.71-8.74A9.72,9.72,0,0,1,99,200.12c-4.9-1.89-5.34-3-3.6-8.43,4.84,0,9.86-1.26,14.23,2,1,.81,2.3,1.73,2.38,3C112.45,204.37,113.53,212,111.19,219.57Z"/><path class="cls-6" d="M127.84,221.36c4.08-2.3,5.49-5.77,5.14-10.4-.31-4.14.06-8.32,0-12.48-.17-7.58,1.14-6.95-6.92-6.84a2.14,2.14,0,0,1,2.08-1.09,18.18,18.18,0,0,0,15.76-5.16c2.29-2.21,4.23.2,5.18,1.9,1.68,3,4.07,3.32,7.07,3.26,7.29-.14,14.59-.06,21.89,0a8.56,8.56,0,0,1,8.68,10.35,31.18,31.18,0,0,0,.11,13.73,8,8,0,0,1-1.8,6.93c-.82-1.08-.5-2.21-.14-3.34-.08-5.82-.09-11.65-.26-17.47-.24-8-3.49-10-11.29-8.54-4.29.79-9-.09-13.42-.62s-6.29.44-6,5.45c.48,7.81.12,15.66.12,23.49a.7.7,0,0,1-.14,1.11c-2-1.17-1.62-2.72-1.28-4.73.81-4.75,1.07-9.58-3.6-14.54,0,5.71.1,10.39,0,15.06-.12,4.2-2.49,6.08-6.2,5.71-2.52-.24-3.27-1.54-3.83-3.72-1.26-4.92-.78-9.91-1-14.88-.06-1.33-.4-3.16-1.73-3.25-1.87-.13-2.1,1.87-2.11,3.29,0,3-.33,6,.35,9C135.49,218,132.71,221.18,127.84,221.36Z"/><path class="cls-7" d="M95.39,191.69c-.79,4.44-.25,7.73,5.58,6.76,1.07-.17,2.69-.28,2.59,1.41-.1,1.48-1.65,1.28-2.78,1.44a10.58,10.58,0,0,0-7.62,16.29,6,6,0,0,0,5.31,3.18c4.15,0,8.32.39,12.44-.47-.49,1.75-1.79,2.23-3.42,2.23-3.32,0-6.67.23-10-.08a6.7,6.7,0,0,1-6.44-6.37c-.27-2.83-.79-3.33-3.89-3-4.64.54-7.48,1-7.59,6.93-.08,4.52-4.92,2.37-7.64,2.7-2.48.3-1.94-2.17-2-3.67-.06-7.8,0-15.6,0-23.41,0-1.71.06-3.36,2-4.14,1.47,5.7,0,11.48.43,17.21.21,2.64-.15,5.31.27,8,.19,1.18.58,2.38,1.92,2.61a2.08,2.08,0,0,0,2.47-1.94c.4-4.72,3.4-6.3,7.57-7,2.14-.34,3.29-2.08,3.66-4.23a23.89,23.89,0,0,0,.23-4.47c-.05-6.94-1.56-8.45-8.43-8.71-2.76-.1-5.7.63-8.11-1.44,7.94-1.61,16-3.85,20.82,5.73C94.85,195.33,92.75,192.57,95.39,191.69Z"/><path class="cls-8" d="M184.86,218.18l.14,3.34c-4.28,2-8.26,1-12.1-1.22,0-5.64-.07-11.28,0-16.91,0-1.79-.84-4.65,2.26-4.5,2.92.14,2,2.94,2,4.75.12,4.3,0,8.62,0,12.93,0,2-.1,4.09,2.68,4.52C182.44,221.48,184.19,220.76,184.86,218.18Z"/><path class="cls-9" d="M153.88,221.6c.05-.37.09-.74.14-1.11,7,.7,7,.7,7-6.1,0-3.48-.09-7,.07-10.44.08-1.94-1-5.07,2.19-5.12,3.65-.06,2.36,3.31,2.47,5.36a75.24,75.24,0,0,1,0,10.93c-.46,4.76,1.14,6.91,6,6-4.47,2.73-7.52,1.27-7.77-4s-.05-10.53-.05-16.14c-2.74.88-1.83,2.67-1.87,3.9-.14,3.81,0,7.63-.06,11.45C162,221.71,159.86,223.12,153.88,221.6Z"/><path class="cls-10" d="M111.19,219.57c0-6.58-.12-13.16-.07-19.74a11.48,11.48,0,0,0-1.5-6.11c2.54,1.54,3.2-1.22,4.7-2.06-.1,3.75-.1,7.51-.32,11.26-.17,3,1.13,5.34,3.15,7.4a1.07,1.07,0,0,1,0,1.27c-1.32.69-2.38-.72-3.61-.64-.87,2.94.66,6.11-1.54,8.6l-.41,0Z"/><path class="cls-11" d="M126.11,191.59c-.09,3.28-.19,6.55-.27,9.82,0,1.44-.38,2.64-2.09,2.75-2,.13-2.53-1-2.58-2.77-.08-3.27-.19-6.54-.3-9.81Z"/><path class="cls-12" d="M112,219.55v-11.2c2.55.15,3.14,2.64,5,3.14,1.86,0,1.57,1,1,2.19-2.76,1.49-2.08,4.06-1.5,6.16s2.81,1.22,4.37,1.31c2.32.12,4.65.09,7,.13-4.51,1.87-9,2.43-13.24-.6A4.48,4.48,0,0,0,112,219.55Z"/><path class="cls-13" d="M128,76.5q32,0,64,0c5.74,0,7.38,1.92,6.59,7.67q-5.87,42.75-11.79,85.5c-.56,4.15-2.43,5.91-6.9,5.88q-51.72-.24-103.45-.05c-4.08,0-6.07-1.21-6.65-5.41-4.06-29-8.29-58-12.38-86.94-.69-4.87,1-6.59,6.15-6.6q32.24-.06,64.46,0Z"/><path class="cls-14" d="M127.94,33.87c14.2,0,28.67,12,31.9,26.46a73.8,73.8,0,0,1,1.27,7.35c.24,2,.55,4.13-2.65,4.12-2.51,0-4.4,0-4.6-3.48a30.42,30.42,0,0,0-6.24-16.61c-12.35-16.5-33.82-14.24-42.91,4.44a35.14,35.14,0,0,0-3.59,12.91C100.9,72.17,99,71.82,97,71.89c-2.46.09-3.12-1.17-3-3.41C94.55,52.72,107.78,33.54,127.94,33.87Z"/><path class="cls-15" d="M118.06,213.68a2.46,2.46,0,0,0-1-2.19l.12-1.17c2.59,1.29,5.62,1,9.63,1.88C123.16,214.51,120.57,213.79,118.06,213.68Z"/><path class="cls-16" d="M104.1,210.8c0,2,.16,3.86-2.36,3.76-2.36-.1-2.43-2-2.43-3.58,0-1.44.19-3.15,2.27-3.19C103.89,207.75,104.19,209.34,104.1,210.8Z"/><path class="cls-17" d="M148,198.53c-1.84,5.63-.32,11.43-.88,17.13-.23,2.39,1.05,5.59-3.42,5.69s-3.54-3-3.59-5.46c-.09-3.81,0-7.63,0-11.44-.06-2.42,1-5.12-2.93-6.26-2.32-.66-1.43-5.61,1-6.64a16.51,16.51,0,0,0,3.57-1.6c4.69-3.56,4.66-3.61,6.28,1.73C151.63,194,150.4,196.25,148,198.53Z"/><path class="cls-18" d="M148,198.53c.65-2.29,2.22-4.57,0-6.85,2.9-.53,3.18,1.25,3.18,3.46S150.92,199.14,148,198.53Z"/><path class="cls-19" d="M72,191.52c3.82,0,7.65,0,11.48.14,4.19.14,6.38,2.48,6.62,6.6.13,2.32,0,4.66,0,7,0,4.48-2.4,7-6.74,6.9-3.63-.06-5.3,1-4.82,4.78.36,2.82-.8,4.32-3.93,4.31s-3.4-2-3.32-4.32c.29-8.46-.68-17,.66-25.4Z"/><path class="cls-20" d="M127.59,151.91c-14.45-.1-27.5-10.52-31.59-25.29a51,51,0,0,1-1.47-6.81c-.31-2.25-1.86-5.12,2.2-5.83,3.76-.66,4.85,1.14,5.24,4.63,1.11,10.09,6.16,17.82,15.17,22.63,15.37,8.22,34.33-3.1,36.9-22,.41-3,.57-5.61,4.72-5.38,2.43.13,3.26,1,3.08,3.33C160.4,136,146.07,152.7,127.59,151.91Z"/><path class="cls-21" d="M98.93,94.73c-2.53-.39-4.07-1.71-4-4.26,0-2.29,1.35-3.84,3.68-3.8s4.29,1.2,4.29,3.84C102.85,93,101.33,94.39,98.93,94.73Z"/><path class="cls-22" d="M158,94.49c-2.74-.17-4.07-1.67-4.06-4.11s1.69-3.55,3.84-3.63c2.62-.1,4,1.67,3.86,4.06A3.55,3.55,0,0,1,158,94.49Z"/><path class="cls-23" d="M81,198.7c2.13.14,2.09,1.68,2.1,3.22,0,1.86-.56,3.48-2.71,3.26s-1.64-2.13-1.71-3.54C78.61,200,78.89,198.61,81,198.7Z"/></g></g></svg>