<svg xmlns="http://www.w3.org/2000/svg" viewBox="0 0 251.38 234.53"><defs><style>.cls-1{fill:#bd9f60;}.cls-2{fill:#bd9f61;}</style></defs><g id="Layer_2" data-name="Layer 2"><g id="Layer_1-2" data-name="Layer 1"><path class="cls-1" d="M117.29,162.81a37.17,37.17,0,0,0,17.35-1.1c15-4.75,25.26-14.2,28-30.15,2.59-15.06-3.13-31.14-20.38-38-20.64-8.27-40-5.23-57.26,8.63-15.18,12.18-23.37,28.46-26,47.71-3.45,24.86,1,48.49,10.69,71.34a55.88,55.88,0,0,0,6.11,10.56c.35.5.94.92.91,1.65-.51.31-.91,0-1.3-.2-28.57-12.93-50.61-32.74-64.22-61.36A115.36,115.36,0,0,1,.29,129.57c-1.39-21,2.15-41.09,11.41-60,7.16-14.65,17.19-27.13,29.27-38C58.38,15.91,78.91,6.65,101.66,2.17A125.15,125.15,0,0,1,138.27.69a128.65,128.65,0,0,1,41.27,10.73c34.8,15.88,56.82,42.85,68,79.1,4,13,4.42,26.49,3.36,40a116.62,116.62,0,0,1-13.33,45.81,120.94,120.94,0,0,1-35.65,41.19c-8.32,6.12-17.46,7.73-27.38,4.58a17.19,17.19,0,0,1-7.6-5q-15.33-16.81-30.73-33.55-9.06-9.87-18.14-19.72C117.89,163.62,117.75,163.41,117.29,162.81Z"/><path class="cls-2" d="M97.35,134.87c1.39,11.22,6,21.3,10.58,31.38,2.88,6.33,6,12.6,7.74,19.36,2.93,11.36,1.07,22.11-4.8,32.24A84.55,84.55,0,0,1,99,233.7c-.57.59-1,1.36-2,.31-7.33-7.72-13.86-16-17.47-26.16-3.45-9.73-3.22-19.27,1.49-28.63,6.37-12.69,12-25.7,15.24-39.6Z"/></g></g></svg>