<svg xmlns="http://www.w3.org/2000/svg" viewBox="0 0 254 254"><defs><style>.cls-1{fill:#e30046;}.cls-2{fill:#fefefe;}.cls-3{fill:#fdfafb;}.cls-4{fill:#fdf9fa;}.cls-5{fill:#fdf8f9;}.cls-6{fill:#e10012;}.cls-7{fill:#e1001f;}.cls-8{fill:#e2001d;}.cls-9{fill:#e30045;}.cls-10{fill:#e30145;}.cls-11{fill:#e30142;}.cls-12{fill:#e30140;}.cls-13{fill:#e30443;}</style></defs><g id="Layer_2" data-name="Layer 2"><g id="Layer_1-2" data-name="Layer 1"><path class="cls-1" d="M254,50.8V204.05c-1.23,5.41-.87,11.07-3.12,16.37-6.45,15.24-17.38,25.63-32.83,31.35-4.78,1.76-10,1.16-14.85,2.23H50c-4.73-1.19-9.75-.6-14.4-2.37C20.14,245.77,9.3,235.3,3,220c-2.15-5.17-1.74-10.7-3-16V50c1.19-4.73.6-9.75,2.37-14.4C8.23,20.14,18.7,9.3,34,3,39.14.81,44.67,1.22,50,0H203.2c6,1.13,12.21.83,18,3.41C236.17,10.07,246.41,21,251.9,36.35,253.55,41,253,46,254,50.8Z"/><path class="cls-2" d="M96.56,155.82a11.79,11.79,0,0,1-4.17-4.63c-7-12.35-14.08-24.68-21.25-36.94a9,9,0,0,1-.56-8.78c6.68-15.93,13.21-31.93,19.81-47.9C91,56.21,91,54.2,93,54.14s2.18,2,2.91,3.21c8.25,14.25,16.6,28.44,24.58,42.84,2.3,4.14,5,5.64,9.72,5.57,16.36-.26,32.72-.12,49.08-.08,1.46,0,3.34-.68,4.19,1.12s-.91,2.81-1.79,4q-15.93,20.8-31.93,41.55a12.19,12.19,0,0,1-4.15,3.51c-3,.81-6.12.34-9.17.36-11.92.07-23.83,0-35.74,0C99.31,156.19,97.88,156.52,96.56,155.82Z"/><path class="cls-2" d="M153.26,98.18c-5.07-4.89-7.4-11.52-10.89-17.41-1.62-2.73-3.18-4.06-6.53-3.84-5.19.34-10.42,0-15.63.13a6.51,6.51,0,0,1-6.52-3.67c-3.84-6.88-7.84-13.66-11.71-20.52-2-3.49-1.4-4.56,2.49-4.57,16.21,0,32.42,0,48.62,0a6,6,0,0,1,5.75,3.44q12,21,24.17,42c.94,1.63,1.48,3-.12,4.51A209.29,209.29,0,0,1,153.26,98.18Z"/><path class="cls-3" d="M149.89,186.4c0-3.52,0-6.62,0-9.72,0-1.18.07-2.5,1.48-2.59,1.77-.11,1.81,1.36,1.81,2.68,0,6.21-.09,12.42,0,18.62,0,2.57-.87,5.37,1.44,7.61a1.63,1.63,0,0,1-2.61,2c-1.43-2-2.61-1.15-4.29-.19-5.28,3-11.14.18-12.24-5.75a25.16,25.16,0,0,1-.43-3.35C134.67,186,140.85,182,149.89,186.4Z"/><path class="cls-4" d="M116.68,204c0,2.7,0,5.08,0,7.46,0,1.07-.5,1.89-1.77,1.9s-1.65-.94-1.66-2q-.06-12,0-24c0-1,.81-2.6,1.41-2.13,2.91,2.26,5.14-.66,7.71-.69,3.94-.05,6.82,1.15,8.48,4.86,2,4.49,1.3,11.5-1.77,14.32s-6.52,2.94-10.17,1.2C118.26,204.59,117.64,204.35,116.68,204Z"/><path class="cls-5" d="M166.48,196.22a16.11,16.11,0,0,0-2.95,0c-1.25.23-3.17-1-3.62.89-.4,1.7.73,3.3,2.24,4.24a7.41,7.41,0,0,0,8-.06c1.24-.69,2.68-1.85,3.49,0,.75,1.73-1.12,2.32-2.31,2.91-4.64,2.32-10.34,1.39-13.2-2.06-3-3.6-3-10.91-.07-14.67,2.79-3.59,6.68-3.38,10.45-2.7,3.37.62,5.15,3.19,5.86,6.49s-.31,5.22-4.07,4.9C169,196.13,167.75,196.22,166.48,196.22Z"/><path class="cls-3" d="M194,196.51v5.06c0,2.15,0,4.49-3.09,2.31-1.27-.87-1.73.36-2.52.67-2.43,1-4.87,1.4-7.32.18a6.06,6.06,0,0,1-3.71-6.48,5.57,5.57,0,0,1,4.84-5.12c1.78-.35,3.65-.23,5.46-.43,1.11-.12,2.75.69,3-1.35a3.07,3.07,0,0,0-2.1-3.32c-2.35-.86-4.68-.79-6.69,1.06-.8.73-1.78,1.83-2.84.57s-.17-2.38.9-3.21c3.07-2.37,6.56-2.49,10-1.28,3.19,1.12,4.25,3.85,4.13,7.11C193.94,193.69,194,195.1,194,196.51Z"/><path class="cls-4" d="M109.09,196.93c0,1.4,0,2.81,0,4.22-.06,2.25.4,5.24-3.39,2.44-.91-.67-1.37.55-2,.85-2.56,1.11-5.12,1.51-7.7.23a5.93,5.93,0,0,1-3.58-6.13,5.46,5.46,0,0,1,4.53-5.34c1.76-.42,3.64-.25,5.44-.51,1.19-.18,3.19.93,3.26-1.38a3.31,3.31,0,0,0-2.94-3.56,6.7,6.7,0,0,0-5.92,1.35c-.8.66-1.7,1.81-2.81.45s.06-2.36,1-3.1c3-2.38,6.54-2.52,10-1.26s4.31,4.15,4.19,7.52C109,194.11,109.08,195.52,109.09,196.93Z"/><path class="cls-5" d="M73,185.5c3,.48,5.84-.56,8.76-.85,4.63-.47,7.34,1.74,7.73,6.29.35,4.05.1,8.15.14,12.23,0,1.12-.39,2.07-1.5,2.15-1.45.1-1.76-1-1.76-2.27,0-3.37.06-6.74,0-10.12-.07-3-1.19-5.14-4.66-5.24s-5.23,1.83-5.45,5.05-.09,6.46-.08,9.7c0,2.24-.54,3.68-3.18,2.39A64.24,64.24,0,0,1,73,185.5Z"/><path class="cls-5" d="M60.58,205.64c-2.15-.58-4.45-.7-6.25-2.24-.85-.73-1.95-1.44-1.07-2.76s2-.64,2.84.1a7.16,7.16,0,0,0,6.3,1.53,2.6,2.6,0,0,0,2.28-2.19,2.46,2.46,0,0,0-1.51-2.74c-1.53-.69-3.13-1.22-4.68-1.86-3.13-1.29-5.43-3.24-4.44-7,.94-3.62,3.9-3.93,7-3.91a8.08,8.08,0,0,1,5.41,1.94c.74.64,1.63,1.36.82,2.46a1.63,1.63,0,0,1-2.58.17,5.93,5.93,0,0,0-4.25-1.55c-1.14.06-2.67-.14-3.06,1.57s.56,2.63,2,3.21c1.29.52,2.57,1.08,3.88,1.58,3.15,1.2,5.58,3,4.79,6.83C67.26,204.78,63.83,205.1,60.58,205.64Z"/><path class="cls-5" d="M197.29,188.64c0-3.8,0-7.6,0-11.4,0-1.21-.41-3,1.28-3.08s1.39,1.78,1.4,3c0,6.48,0,13,0,19.43,0,2.2-.45,4.49,1.15,6.49a1.61,1.61,0,0,1-.43,2.55c-1.14.6-1.8-.39-2.41-1.14a5.92,5.92,0,0,1-1-4C197.3,196.53,197.29,192.58,197.29,188.64Z"/><path class="cls-6" d="M96.56,155.82h49c-1,1-2.35.81-3.61.81H100.17C98.91,156.63,97.6,156.78,96.56,155.82Z"/><path class="cls-7" d="M153.26,98.18l29.63.06c-1.61,1.3-3.52.78-5.31.8-6.63.06-13.26,0-19.89,0C156.17,99,154.55,99.4,153.26,98.18Z"/><path class="cls-8" d="M73,185.5l0,19.33A38.36,38.36,0,0,1,73,185.5Z"/><path class="cls-9" d="M138.65,194.94c0-5,1.74-7.29,5.46-7.33s5.77,2.48,5.78,7.54-1.86,7.54-5.77,7.49S138.63,200.47,138.65,194.94Z"/><path class="cls-10" d="M128.24,195c0,5.09-1.8,7.55-5.7,7.61s-5.86-2.24-5.89-7.35,1.73-7.57,5.63-7.63S128.2,190,128.24,195Z"/><path class="cls-11" d="M165.27,193.35c-1.7-1.08-4.88,1.39-5.16-1.63-.26-2.84,2.39-4.2,5.23-4.2s5.57,1.38,5.31,4.17C170.33,195.07,167,192.06,165.27,193.35Z"/><path class="cls-12" d="M184.06,202.43a3,3,0,0,1-3.14-3.45c.17-3.6,3.13-3.55,5.62-3.34,1.41.12,3.92-1.58,4.12,1.7C190.83,200.11,188.41,202.34,184.06,202.43Z"/><path class="cls-13" d="M102.24,195.5c.87.89,3.57-1.51,3.43,1.7s-2.06,5.06-5.36,5.2c-2.3.1-4.58-.56-4.52-3.18C95.88,195.15,99.26,195.67,102.24,195.5Z"/></g></g></svg>