<svg xmlns="http://www.w3.org/2000/svg" xmlns:xlink="http://www.w3.org/1999/xlink" viewBox="0 0 1024 500"><defs><style>.cls-1{fill:#1f4275;}.cls-11,.cls-19,.cls-2,.cls-24,.cls-25,.cls-28,.cls-29,.cls-32,.cls-37,.cls-40,.cls-44,.cls-49,.cls-51{fill:none;}.cls-3{isolation:isolate;}.cls-4{opacity:0.84;}.cls-5{opacity:0.4;}.cls-6{fill:#dae7f6;opacity:0.55;}.cls-7{fill:#485caa;}.cls-8{fill:#263270;}.cls-9{fill:#1d1f56;}.cls-10{fill:#23a583;}.cls-11{stroke:#485caa;stroke-width:0.61px;}.cls-11,.cls-19,.cls-24,.cls-25,.cls-28,.cls-29,.cls-32,.cls-40,.cls-44{stroke-linecap:round;}.cls-11,.cls-19,.cls-24,.cls-25,.cls-28,.cls-29,.cls-32,.cls-37,.cls-40,.cls-44,.cls-49,.cls-51{stroke-miterlimit:10;}.cls-12{fill:#50bfa4;}.cls-13{fill:#e6f6fd;}.cls-14{fill:#6a89c5;}.cls-15{fill:#7a89c4;}.cls-16{fill:#6378ba;}.cls-17{fill:#ffc856;}.cls-18{fill:#fcb854;}.cls-19{stroke:#fffef9;stroke-width:0.83px;}.cls-20{fill:#ea5f5d;}.cls-21{fill:#d34b4a;}.cls-22{fill:#a6302f;}.cls-23{fill:#4864ae;}.cls-24,.cls-25,.cls-28,.cls-40{stroke:#0d1f44;}.cls-24{stroke-width:2.33px;}.cls-25{stroke-width:2.27px;}.cls-26{fill:#0d1f44;}.cls-27,.cls-47{fill:#89b7e2;}.cls-28{stroke-width:1.8px;}.cls-29{stroke:#ea5f5d;stroke-width:4.07px;}.cls-30{fill:#b1e0e4;}.cls-31{clip-path:url(#clip-path);}.cls-32,.cls-44{stroke:#b1e0e4;}.cls-32,.cls-37{stroke-width:0.55px;}.cls-33{fill:#f6998e;}.cls-34{clip-path:url(#clip-path-2);}.cls-35{fill:#4f7fac;}.cls-36{clip-path:url(#clip-path-3);}.cls-37{stroke:#284e7a;}.cls-38{fill:#00ab99;}.cls-39{fill:#bb5a65;}.cls-40{stroke-width:0.82px;}.cls-41{fill:#5fc5bb;}.cls-42{fill:#dd7a7a;}.cls-43{clip-path:url(#clip-path-4);}.cls-44{stroke-width:0.56px;}.cls-45{clip-path:url(#clip-path-5);}.cls-46{clip-path:url(#clip-path-6);}.cls-47{mix-blend-mode:multiply;}.cls-48{fill:#fffef9;}.cls-49,.cls-51{stroke:#fff;}.cls-49{stroke-width:0.54px;}.cls-50{fill:#fff;}.cls-51{stroke-width:0.36px;}.cls-52{fill:#eb9759;}</style><clipPath id="clip-path"><path class="cls-1" d="M209.29,458.13c-.26,1.27-1.29,4.27-1,5.72,1.31,1.11,4.1,1.18,6.19.65s3.56.55,6.19.7,4.72-.56,5.25-1.64-3.93-2.09-7-3a13.9,13.9,0,0,1-5.2-2.74Z"/></clipPath><clipPath id="clip-path-2"><path class="cls-1" d="M182.06,447.33c-1.26.32-4.41.66-5.6,1.55-.43,1.65.69,4.21,2.07,5.87s1,3.45,2,5.89,2.53,4,3.73,4,.21-4.44-.26-7.62a14.08,14.08,0,0,1,.25-5.87Z"/></clipPath><clipPath id="clip-path-3"><path class="cls-2" d="M188.33,448s17.12-17.38,18.45-18.84,6.69-30.28,7-32.44c0,0,5.37-5.47,5.53-10L201.92,378c-.74,2.79-1.35,2.88-1.85,10.16-.26,3.71-1.07,19-1.65,37.09a22.89,22.89,0,0,0-4.53,3.62c-2.23,2.17-9,15.59-9,15.59A5.84,5.84,0,0,0,188.33,448Z"/></clipPath><clipPath id="clip-path-4"><path class="cls-1" d="M802.47,461.65c0,1.28.34,4.39-.26,5.73-1.49.79-4.19.27-6.1-.69s-3.55-.23-6.12-.64-4.43-1.54-4.71-2.7,4.23-1.18,7.39-1.43a13.75,13.75,0,0,0,5.6-1.55Z"/></clipPath><clipPath id="clip-path-5"><path class="cls-1" d="M834.34,453.74c1,.85,3.56,2.59,4.19,3.92-.37,1.64-2.52,3.36-4.48,4.19s-2.48,2.55-4.46,4.24-4.06,2.36-5.11,1.83,1.85-4,3.7-6.55a13.61,13.61,0,0,0,2.46-5.26Z"/></clipPath><clipPath id="clip-path-6"><path class="cls-2" d="M829.13,453.14s-12.78-21.38-13.88-23.41c-.93-1.72-5.28-28-5.63-30.16,0,0-6.46-8.16-6.62-12.64l12-3.3c.73,2.75,4.6,2.78,7.54,9.36,2.57,5.73,1.86,18,.54,33.74a8,8,0,0,1,3.32,4.33c1.52,4.31,6.88,20.15,6.88,20.15A4.88,4.88,0,0,1,829.13,453.14Z"/></clipPath></defs><g class="cls-3"><g id="Layer_2" data-name="Layer 2"><g id="Layer_1-2" data-name="Layer 1"><rect class="cls-2" width="1024" height="500"/><g class="cls-4"><g class="cls-5"><path class="cls-6" d="M640,70.57h-247c-6.72,0-12.16,4-12.16,8.93V431.29c0,4.93,5.44,8.93,12.16,8.93H640c6.72,0,12.17-4,12.17-8.93V79.5C652.21,74.57,646.76,70.57,640,70.57Z"/><path class="cls-7" d="M645.59,39.18H387.53c-13,0-23.47,7.71-23.47,17.23v398c0,9.52,10.51,17.23,23.47,17.23H645.59c13,0,23.48-7.71,23.48-17.23v-398C669.07,46.89,658.56,39.18,645.59,39.18Zm6.62,392.11c0,4.93-5.45,8.93-12.17,8.93h-247c-6.72,0-12.16-4-12.16-8.93V79.5c0-4.93,5.44-8.93,12.16-8.93H640c6.72,0,12.17,4,12.17,8.93Z"/><path class="cls-8" d="M387.53,471.61H645.59c13,0,23.48-7.71,23.48-17.23v-398a14.73,14.73,0,0,0-5.38-11L645.44,71.51c4,1.46,6.77,4.48,6.77,8V431.29c0,4.93-5.45,8.93-12.17,8.93h-247a15.83,15.83,0,0,1-5.06-.82L369.7,465.58C374,469.26,380.39,471.61,387.53,471.61Z"/><path class="cls-9" d="M502.9,60.64c-4.33,0-7.85-2.58-7.85-5.76s3.52-5.77,7.85-5.77,7.86,2.58,7.86,5.77S507.24,60.64,502.9,60.64Z"/><path class="cls-9" d="M564.34,54.88h0c0-1.93-2.13-3.5-4.76-3.5H528.34c-2.63,0-4.76,1.57-4.76,3.5h0c0,1.92,2.13,3.49,4.76,3.49h31.24C562.21,58.37,564.34,56.8,564.34,54.88Z"/></g><path class="cls-10" d="M735.35,469s-4.62-2.1-3.93-5.34,4.43-2.91,3.93-5.48-3-6.55-.58-9.46,6.37-1.16,6.87-5.67c.41-3.63,2.08-6.21,5.34-5.45,3,.7,5.25,3,5.31,8.57.06,5.9,4.21,4.24,4.26,8.59s-3.43,4.38-4.79,7.32c-.65,1.39,1,6.26-3.93,6.92Z"/><path class="cls-11" d="M746.81,440.67s1.93,16.81-6.51,29.16"/><path class="cls-12" d="M744.56,469s-.72-4,2-5.64,5.5-2.9,5.2-5.53.44-5.74,4.8-5.79c2.69,0,1.68-2.88,4.42-3.45,1.66-.34,2.76,1.4,3,3.1.24,1.95-.86,3.86.4,5.44,1.64,2.05,2.31,5.87-1.21,7s-.38,4.42-5.18,4.91Z"/><path class="cls-11" d="M761.14,451.25c-.2,5.22-4.58,14.62-11.24,18.58"/><path class="cls-13" d="M372.27,470.69H656.68a0,0,0,0,1,0,0v.83a24.87,24.87,0,0,1-24.87,24.87H397.14a24.87,24.87,0,0,1-24.87-24.87v-.83a0,0,0,0,1,0,0Z"/><path class="cls-14" d="M837,470.69H171.2c-1.1,0-2-.46-2-1h0c0-.57.89-1,2-1H837c1.1,0,2,.46,2,1h0C839,470.23,838.07,470.69,837,470.69Z"/><path class="cls-12" d="M252,466.62a32.89,32.89,0,0,0,.53-11.64c-.87-6.38-6.51-16.23-11.92-15.9s-5.68,6.61-2.41,9.63,11.13,10,11,17.65Z"/><path class="cls-11" d="M240.38,442.71c3.16,2,11.69,9.79,10.39,23.8"/><path class="cls-10" d="M250.77,466.51a16.32,16.32,0,0,0-4.43-10.77c-4.57-4.77-12-5.69-15.57-3.39-3.25,2.13-2.8,7,3.26,7.2,9.29.27,13.42,1.64,15.12,6.81Z"/><path class="cls-11" d="M232.48,454.65c4.36-.84,15.59.41,17.63,11.89"/><polygon class="cls-15" points="259.48 421.66 280.94 421.66 280.94 438.44 264.69 438.44 259.48 421.66"/><rect class="cls-16" x="280.94" y="421.66" width="8.54" height="16.78"/><rect class="cls-17" x="289.48" y="421.66" width="17.19" height="16.78"/><polygon class="cls-18" points="314.4 438.44 306.67 438.44 306.67 421.66 317.68 421.66 314.4 438.44"/><path class="cls-19" d="M274,393.75v-5.38a5.16,5.16,0,0,1,5.15-5.15h0a5.16,5.16,0,0,1,5.16,5.15v5.38"/><polygon class="cls-20" points="285.83 391.16 264 391.16 261.43 421.66 283.26 421.66 285.83 391.16"/><polygon class="cls-21" points="289.66 391.16 285.83 391.16 283.26 421.66 286.66 421.66 288.82 421.66 292.22 421.66 289.66 391.16"/><polygon class="cls-22" points="283.26 421.66 287.74 417.65 292.22 421.66 283.26 421.66"/><path class="cls-22" d="M268.85,394.16a.9.9,0,1,1,.89.89A.89.89,0,0,1,268.85,394.16Z"/><path class="cls-22" d="M279.15,394.16a.9.9,0,1,1,.9.89A.9.9,0,0,1,279.15,394.16Z"/><path class="cls-19" d="M269.74,393.75v-5.38a5.16,5.16,0,0,1,5.15-5.15h0a5.16,5.16,0,0,1,5.16,5.15v5.38"/><path class="cls-19" d="M299.46,393.75v-5.38a5.15,5.15,0,0,1,5.15-5.15h0a5.16,5.16,0,0,1,5.15,5.15v5.38"/><polygon class="cls-15" points="311.28 391.16 289.45 391.16 286.89 421.66 308.72 421.66 311.28 391.16"/><polygon class="cls-16" points="315.11 391.16 311.28 391.16 308.72 421.66 312.12 421.66 314.28 421.66 317.68 421.66 315.11 391.16"/><polygon class="cls-23" points="308.72 421.66 313.2 417.65 317.68 421.66 308.72 421.66"/><path class="cls-23" d="M294.3,394.16a.9.9,0,1,1,.9.89A.9.9,0,0,1,294.3,394.16Z"/><path class="cls-23" d="M304.61,394.16a.9.9,0,1,1,.89.89A.89.89,0,0,1,304.61,394.16Z"/><path class="cls-19" d="M295.2,393.75v-5.38a5.15,5.15,0,0,1,5.15-5.15h0a5.15,5.15,0,0,1,5.15,5.15v5.38"/><path class="cls-24" d="M240.59,391h4.89a5.31,5.31,0,0,1,5.05,3.66l13.78,42.05a2.52,2.52,0,0,0,2.4,1.74h46.17a2.52,2.52,0,0,0,2.49-2.11l5.44-33H253.37"/><path class="cls-25" d="M309.43,438.44H277.05a18.16,18.16,0,0,0-18.15,18.15h48.43"/><path class="cls-26" d="M262.9,462.31a3.74,3.74,0,1,1,3.74,3.74A3.75,3.75,0,0,1,262.9,462.31Z"/><path class="cls-27" d="M266.11,457.69a6.74,6.74,0,0,1-1.07,4.43c-1.05,1.5,1.37,2.45,3.81,1a9.28,9.28,0,0,0,3.7-5.41Z"/><path class="cls-26" d="M265.85,462.31a.79.79,0,1,1,.79.79A.79.79,0,0,1,265.85,462.31Z"/><path class="cls-26" d="M289,462.31a3.74,3.74,0,1,1,3.74,3.74A3.74,3.74,0,0,1,289,462.31Z"/><path class="cls-27" d="M292.25,457.69a6.8,6.8,0,0,1-1.07,4.43c-1.05,1.5,1.37,2.45,3.8,1a9.27,9.27,0,0,0,3.71-5.41Z"/><path class="cls-26" d="M292,462.31a.79.79,0,1,1,.79.79A.79.79,0,0,1,292,462.31Z"/><line class="cls-28" x1="257.22" y1="415.11" x2="318.88" y2="415.11"/><line class="cls-28" x1="261.07" y1="426.85" x2="316.94" y2="426.85"/><line class="cls-29" x1="243.77" y1="391.04" x2="236.13" y2="391.04"/><path class="cls-30" d="M225.92,463.56c.23.43.05,1.31-1.69,2s-4.9.41-6.15.17a7.47,7.47,0,0,0-3.87-.22c-1.85.38-4.89.22-5.81-.56-.32-.37-.11-1.14-.11-1.14Z"/><path class="cls-1" d="M209.29,458.13c-.26,1.27-1.29,4.27-1,5.72,1.31,1.11,4.1,1.18,6.19.65s3.56.55,6.19.7,4.72-.56,5.25-1.64-3.93-2.09-7-3a13.9,13.9,0,0,1-5.2-2.74Z"/><g class="cls-31"><path class="cls-32" d="M214.76,460.59a5.85,5.85,0,0,1,1.44-2.29"/><path class="cls-32" d="M217.09,461.52a5.79,5.79,0,0,1,1.45-2.29"/><path class="cls-32" d="M219.43,462.44a5.73,5.73,0,0,1,1.44-2.29"/></g><path class="cls-33" d="M209.29,453.06v5.07a2.27,2.27,0,0,1,.83.49c.25.29.58,1.24,1,1.26,1.64.07,2.61-2.09,2.61-2.09l.62-4.62Z"/><path class="cls-30" d="M184.28,464.68c-.29.39-1.16.61-2.56-.65s-2.47-4.25-2.79-5.48a7.44,7.44,0,0,0-1.46-3.59c-1.14-1.51-2.29-4.33-2-5.5.19-.44,1-.58,1-.58Z"/><path class="cls-1" d="M182.06,447.33c-1.26.32-4.41.66-5.6,1.55-.43,1.65.69,4.21,2.07,5.87s1,3.45,2,5.89,2.53,4,3.73,4,.21-4.44-.26-7.62a14.08,14.08,0,0,1,.25-5.87Z"/><g class="cls-34"><path class="cls-32" d="M182.18,453.33a5.74,5.74,0,0,1,2.69.32"/><path class="cls-32" d="M182.35,455.83a5.84,5.84,0,0,1,2.68.32"/><path class="cls-32" d="M182.51,458.34a5.74,5.74,0,0,1,2.69.32"/></g><path class="cls-33" d="M184.87,444.44l-2.81,2.89a2.21,2.21,0,0,1-.08,1c-.16.35-.88,1.06-.72,1.44.65,1.51,3,1.46,3,1.46l4.06-3.19Z"/><path class="cls-1" d="M219.09,380.77c-5.68,0-9.91.43-9.91.43-1.82.79-4.94,4.92-5.86,7.54s-.54,7-.06,9.27c2.66,12.57,7.12,19.81,8.16,24.79.63,3.05-2.39,1.41-2.39,9.13,0,6.92.26,21.65.26,21.65a6.63,6.63,0,0,0,4.94.39s4.27-24.3,4.73-27.08c.76-4.51,1-6.4,1.11-14.21C220.19,401.71,219.09,380.77,219.09,380.77Z"/><path class="cls-27" d="M188.33,448s17.12-17.38,18.45-18.84,6.69-30.28,7-32.44c0,0,5.37-5.47,5.53-10L201.92,378c-.74,2.79-1.35,2.88-1.85,10.16-.26,3.71-1.07,19-1.65,37.09a22.89,22.89,0,0,0-4.53,3.62c-2.23,2.17-9,15.59-9,15.59A5.84,5.84,0,0,0,188.33,448Z"/><path class="cls-35" d="M200.07,388.14c-.26,3.71-1.07,19-1.65,37.09a22.89,22.89,0,0,0-4.53,3.62c-2.23,2.17-9,15.59-9,15.59a6.22,6.22,0,0,0,.73,1.43,144.19,144.19,0,0,1,8.14-14.45,17.91,17.91,0,0,1,6.33-5.23c.55-.46.28-2,.46-5.51s2.23-33.59,2.23-33.59l-2.26-3.44C200.35,384.76,200.21,386.19,200.07,388.14Z"/><path class="cls-35" d="M218.2,390.63a14.17,14.17,0,0,1-8.94,3.08,19.11,19.11,0,0,1-9.38-2.43l.19-3.14Z"/><g class="cls-36"><path class="cls-37" d="M214.47,377.87c-2.54,4.81-7.09,7.8-8.33,11s-1.54,9.26-2.56,21.07c-1,11.22-1.36,14.65-1.5,16.87-1.08,1.42-4.13,2.32-8.06,7.74-3.8,5.24-8.73,13.55-8.73,13.55"/><path class="cls-37" d="M211.43,390.66s-.43,7.28-6.69,6.91"/><path class="cls-37" d="M185.69,442.08c.37,1.93,2.57,3.8,5.31,4.85"/></g><path class="cls-38" d="M218.72,351.45c.37.39.49,1.15-.16,3.47l-8.12-6.82Z"/><path class="cls-39" d="M225.44,338.54c.17.66,1.2,3.53,1.56,4.38s-1.9.42-1.9.42Z"/><polygon class="cls-33" points="212.03 348.1 217.94 353.45 220.07 347.89 214.29 341.78 212.03 348.1"/><path class="cls-39" d="M219.13,350.34s-5.71-4.38-4.84-8.56l5.78,6.11Z"/><path class="cls-33" d="M214.31,341.78a14.17,14.17,0,0,0,.32,1.64c.2.72,4.81,4.29,6.13,4.85s3.23.78,4.15-3.9.87-9-1.61-11.9-7.4-1.87-10.07.54S210.91,341.73,214.31,341.78Z"/><path class="cls-26" d="M214.31,341.78l-.88,2.42s-1-.4-1.85-2.42c-.94-2.21-2.73-6-1.92-7.91a4.63,4.63,0,0,1,3.52-2.48c.51-.09.68,0,.9-.41a5.1,5.1,0,0,1,2-2.47,5.4,5.4,0,0,1,2.61-.78,15.11,15.11,0,0,1,3.34.41,22.36,22.36,0,0,0,6.88,0,.32.32,0,0,1,.27,0,.33.33,0,0,1,.07.29c-.19,1.95-1.59,3-3.32,3.57,0,0,2.69,2.44.38,3.07s-7.92-1.1-7.92-1.1,2.48,1.84,1.43,2.39-4.54-.78-4.54-.78l-.06,1.94a2.38,2.38,0,0,0-2.39-.14C211.54,338.32,212.13,341.81,214.31,341.78Z"/><path class="cls-40" d="M214.89,325.63s-2.8,3.28-.24,6.75a4.44,4.44,0,0,1-3.06-4.32"/><path class="cls-41" d="M217.89,354.36s.84-2,.47-2.54c-1.21-1.76-5.16-7-5.71-6.46s-2.21,2.74-2.21,2.74Z"/><path class="cls-41" d="M218.56,354.92c.5,2.33.46,6.18.78,14.34.2,5.25.73,20.48.73,20.48s-4,2.63-10.77,2.09c-6.45-.52-9.23-3.69-9.23-3.69s.67-21.41,2.79-29.84c3.13-8.69,7.58-10.2,7.58-10.2Z"/><path class="cls-38" d="M219.71,379.58,205.92,360c.45,3.17,7.34,20.57,7.34,20.57l1.12-.09s1.39,3.21,2,4.16c.39.63,2.44,1.21,3.58,1.56C219.88,384.39,219.8,382,219.71,379.58Z"/><path class="cls-38" d="M210.44,348.1l7.45,6.26.67.56a1.64,1.64,0,0,1,.18,1.13Z"/><path class="cls-26" d="M222.88,338.8a.59.59,0,1,0-1.17.07.59.59,0,0,0,.62.55A.58.58,0,0,0,222.88,338.8Z"/><path class="cls-26" d="M223.37,337.26l-2.69.85a1.39,1.39,0,0,1,1-1.19A1.58,1.58,0,0,1,223.37,337.26Z"/><path class="cls-39" d="M213.36,338.22a1.33,1.33,0,0,1,1.21.13c.12.09-.08.28-.19.24-.61-.23-1.37-.26-1.67.46,0,0-.05,0,0,0A1,1,0,0,1,213.36,338.22Z"/><path class="cls-39" d="M213.65,338.27c.07,0,.22.14.21.19a.86.86,0,0,0-.34.3,1.12,1.12,0,0,0-.15.69,1.25,1.25,0,0,0,1,1.2s0,0,0,0a1.19,1.19,0,0,1-1.23-.88A1.27,1.27,0,0,1,213.65,338.27Z"/><path class="cls-33" d="M205.66,358.31c-.68-3.8,6.57-6.21,8.6-1.36s7.05,21.11,7.05,21.11,14.85,9.36,16.33,9.22c2-.19,7,5.24,6.36,6.09s-3.1,1.55-4.88,1.05c-1.46-.42-2.88-3.06-3.45-3.49-2.87-1-16.64-5.52-18.47-7.11S206.1,360.78,205.66,358.31Z"/><path class="cls-41" d="M213.73,355.09a50.52,50.52,0,0,1,2.7,7.18C217.26,365.11,221,377,221,377a9.64,9.64,0,0,1-5.9,3.3s-2.75-5.62-4.42-9.09-4.49-10.36-5.2-12.41,1.58-5.61,3-5.9S212.78,353,213.73,355.09Z"/><path class="cls-42" d="M810.68,359.45c-2.43.56-3.32,1.58-5,6.17s-5.23,15-5.72,15.53c0,0-12.89-1.25-16.12-1.75a31.81,31.81,0,0,0-6-.21c-1.32.06-3.64.24-4.58.4-2.54.45-.75,2.42,1.26,3.7,2.67,1.69,7.16,0,10.47.34s15.27,3.87,16.91,3.22,8.52-14.78,8.52-14.78Z"/><path class="cls-42" d="M783.82,379.4c-1.67-.21-1.2-.73-2.41-1.32s-2.17-.49-3.09-.92-.89.52-.28,1a7.18,7.18,0,0,0,1.2.56c.67.34-1.27.44-1.27.44Z"/><path class="cls-30" d="M785.28,463.35c-.32.37-.33,1.26,1.2,2.33s4.63,1.44,5.89,1.47a7.54,7.54,0,0,1,3.78.6c1.7.77,4.67,1.25,5.72.7.39-.29.34-1.07.34-1.07Z"/><path class="cls-1" d="M802.47,461.65c0,1.28.34,4.39-.26,5.73-1.49.79-4.19.27-6.1-.69s-3.55-.23-6.12-.64-4.43-1.54-4.71-2.7,4.23-1.18,7.39-1.43a13.75,13.75,0,0,0,5.6-1.55Z"/><g class="cls-43"><path class="cls-44" d="M796.67,462.86a5.68,5.68,0,0,0-.91-2.51"/><path class="cls-44" d="M794.22,463.26a5.83,5.83,0,0,0-.9-2.52"/><path class="cls-44" d="M791.77,463.66a5.69,5.69,0,0,0-.9-2.52"/></g><path class="cls-33" d="M803.37,457.18l-.9,4.47a2.22,2.22,0,0,0-.91.29c-.3.23-.82,1.08-1.22,1-1.6-.29-2.07-2.58-2.07-2.58l.69-11.9Z"/><path class="cls-30" d="M824.48,467.92c.07.48.73,1.06,2.54.6s4.1-2.59,4.94-3.53a7.48,7.48,0,0,1,2.92-2.48c1.69-.8,4-2.74,4.25-3.9,0-.48-.6-.95-.6-.95Z"/><path class="cls-1" d="M834.34,453.74c1,.85,3.56,2.59,4.19,3.92-.37,1.64-2.52,3.36-4.48,4.19s-2.48,2.55-4.46,4.24-4.06,2.36-5.11,1.83,1.85-4,3.7-6.55a13.61,13.61,0,0,0,2.46-5.26Z"/><g class="cls-45"><path class="cls-44" d="M831.5,458.94A5.74,5.74,0,0,0,829,458"/><path class="cls-44" d="M830.21,461.06a5.68,5.68,0,0,0-2.5-.95"/><path class="cls-44" d="M828.92,463.18a5.68,5.68,0,0,0-2.5-.95"/></g><path class="cls-33" d="M833,450.69l1.32,3.05a2.32,2.32,0,0,0-.36.88c0,.37.28,1.32,0,1.58-1.25,1-3.3-.09-3.3-.09l-2.1-4.65Z"/><path class="cls-1" d="M803,386.65a39.47,39.47,0,0,0,10.22-4.14c1.92.36,5,5.81,6.47,8.13s-3.69,9.59-4,11.05c-2.08,9.51-3.92,16.19-5.26,20.53-.92,2.93-2.27,6.53-2.41,7.65,1.35,4.2-4.46,27.64-4.46,27.64s-3.22,1-5.09-1.14c0,0,1.07-25.45,1.15-28.23.28-9.16,1.59-15.84,1.82-19.77C802.35,392.12,803,386.65,803,386.65Z"/><path class="cls-27" d="M829.13,453.14s-12.78-21.38-13.88-23.41c-.93-1.72-5.28-28-5.63-30.16,0,0-6.46-8.16-6.62-12.64l12-3.3c.73,2.75,4.6,2.78,7.54,9.36,2.57,5.73,1.86,18,.54,33.74a8,8,0,0,1,3.32,4.33c1.52,4.31,6.88,20.15,6.88,20.15A4.88,4.88,0,0,1,829.13,453.14Z"/><path class="cls-35" d="M833.25,451.21s-5.36-15.84-6.88-20.15a8,8,0,0,0-3.32-4.33c1.32-15.74,2-28-.54-33.74-2.94-6.58-6.81-6.61-7.54-9.36l-12,3.3a15.11,15.11,0,0,0,2.15,5.95c2.14-.23,8-1,11.25-2.71,0,0,3.15,4.25,4.06,12.17a233.64,233.64,0,0,1,.86,24.54c0,1.16,1.48,1.16,3.56,5.23,1.71,3.33,5.79,16,7.37,20.09A4.37,4.37,0,0,0,833.25,451.21Z"/><g class="cls-46"><path class="cls-37" d="M811.27,386c3.69,6.88,6.79,11.54,7.31,22.29s1.33,19.95,1.33,19.95c.24,1.39,2.57,2.18,4.57,7.18,2.19,5.5,7.32,18.83,7.32,18.83"/><path class="cls-37" d="M816.16,395.81c-1.73.78-3.8.53-5.33-2.13a48.93,48.93,0,0,1-3.08-7.39"/><path class="cls-37" d="M826.47,451.27s5.18.44,6.78-3.2"/></g><path class="cls-41" d="M815,357.75a2.66,2.66,0,0,0,1.29.47c1,.44,3.4,2.13,4,3.17,1.35,1.87,1.16,5.85-.58,10.88-.87,2.51-4.82,7.58-1.85,14.21,0,0-7.89,4.22-15.1.66-.12-3.63.78-5.78.8-9.79a8.94,8.94,0,0,1-2.12-4.46c-.34-4.9,4.56-6.39,8.37-11.85,1.07-1.52,1.88-1.45,3.33-2.56A3.42,3.42,0,0,1,815,357.75Z"/><path class="cls-38" d="M819.68,372.27l.06-.18-.5-1.93-2.36-5.64-2.4.41a47.87,47.87,0,0,0,1,12.4,43.39,43.39,0,0,0,1.26,4.26C816.73,377.36,819,374.12,819.68,372.27Z"/><path class="cls-33" d="M809.77,361c0,.72-1.34,2.32-1,3.43s2,.26,3.2-1,2.64-4.15,4.33-5.21a3.2,3.2,0,0,1-.85-.74Z"/><path class="cls-26" d="M812.65,339.36s-1.48-3.13-6.41-2.41-5.63,6.38-5.24,8.29a6.87,6.87,0,0,0,3.12,4.27Z"/><path class="cls-33" d="M812.39,352.46l2.15,1.91.94,3.22a8.12,8.12,0,0,0-1.86,1.69c-.64,1-2,3.24-3.76,3.44a13.79,13.79,0,0,0-.09-3.18c-.25-1.12-1-3.32-1-3.32Z"/><path class="cls-39" d="M812.39,352.46a9.05,9.05,0,0,1,.22,2.23c-.07.92-1,2.34-3.1,3.89-.34-1.07-.77-2.36-.77-2.36Z"/><path class="cls-39" d="M803.34,348.42c-.4,1.44-2.05,3.47-1.69,3.83s1.71.23,1.71.23a2.65,2.65,0,0,0,.68-2.4C803.69,348.68,803.34,348.42,803.34,348.42Z"/><path class="cls-33" d="M806.94,339.38c-2,.18-4,2.95-4,5.47s.62,3.9.46,5.68a11,11,0,0,0,.6,5.36c.49,1.25,1.79,1.53,3.52,1.11a12.51,12.51,0,0,0,4.23-2.38c.5-.48.6-2.16.6-2.16a4.92,4.92,0,0,0,3.44-2.5C816.91,347.8,816.71,338.49,806.94,339.38Z"/><path class="cls-26" d="M812.39,352.46a3.23,3.23,0,0,0,2-3.23c-.2-2.46-3.51-2.55-3.37-.39,0,.18-1.29-.45-1.36-.5a16.9,16.9,0,0,1-1.54-1.13,11,11,0,0,1-2.54-2.94,7.35,7.35,0,0,1-.91-5.08,1.49,1.49,0,0,1,1.21-1.41,5.74,5.74,0,0,1,2.69-.37,7,7,0,0,1,4.12,1.95,4.66,4.66,0,0,1,4.32.43c1.85,1.46,3.15,5.23,1.56,9.13a12,12,0,0,1-4,5.45Z"/><path class="cls-26" d="M812.65,339.36a5,5,0,0,1,3.62-.44c2.18.49,4,3.35,4.08,7.39s-.35,7.75-1.66,9.21a8.2,8.2,0,0,1-6.58,2.77s1.56-3.05.28-5.83c0,0,1.49,1,2.85-.9S812.65,339.36,812.65,339.36Z"/><path class="cls-26" d="M805.08,349a.58.58,0,0,1,1.16.07.59.59,0,0,1-.61.55A.6.6,0,0,1,805.08,349Z"/><path class="cls-26" d="M804.61,347.53l2.64.84a1.38,1.38,0,0,0-1-1.19A1.55,1.55,0,0,0,804.61,347.53Z"/><path class="cls-39" d="M813,348.71a1.34,1.34,0,0,0-1.2.14c-.12.09.08.27.18.23.61-.22,1.36-.25,1.66.46,0,0,0,0,0,0A1,1,0,0,0,813,348.71Z"/><path class="cls-39" d="M812.7,348.77c-.07,0-.22.14-.21.18a.86.86,0,0,1,.34.3,1.07,1.07,0,0,1,.14.68,1.24,1.24,0,0,1-1,1.19s0,0,0,0a1.18,1.18,0,0,0,1.22-.86A1.27,1.27,0,0,0,812.7,348.77Z"/><path class="cls-33" d="M798.54,388.51c.76,0,1.14-.19.75-.5-.7-.57-1.33-.95-1.43-1.62s.69-.26,1.14,0c1.14.57,2.65.88,3.59,1.83,2.75-.72,10-3.86,15.08-6.42,0,0-2.81-11.65-3.13-14.68s.08-5.91,3.34-6.65c1.58-.36,2.58,1.45,3.15,5.22s2.2,17,2,18.49-1.78,2.53-7.55,4.38c-3.25,1-12.55,3.36-12.55,3.36a9.46,9.46,0,0,1-2.37.82"/><path class="cls-19" d="M793.25,398.31v-5.19a5,5,0,0,1,5-5h0a5,5,0,0,1,5,5v5.19"/><polygon class="cls-20" points="804.66 395.81 783.59 395.81 781.12 425.25 802.19 425.25 804.66 395.81"/><polygon class="cls-21" points="808.36 395.81 804.66 395.81 802.19 425.25 805.47 425.25 807.55 425.25 810.83 425.25 808.36 395.81"/><polygon class="cls-22" points="802.19 425.25 806.51 421.37 810.83 425.25 802.19 425.25"/><path class="cls-22" d="M788.27,398.7a.87.87,0,1,1,.87.87A.87.87,0,0,1,788.27,398.7Z"/><path class="cls-22" d="M798.22,398.7a.86.86,0,1,1,.86.87A.86.86,0,0,1,798.22,398.7Z"/><path class="cls-19" d="M789.14,398.31v-5.19a5,5,0,0,1,5-5h0a5,5,0,0,1,5,5v5.19"/><path class="cls-33" d="M800.56,392.7a10.81,10.81,0,0,1-4.69,0,8.46,8.46,0,0,1-1-.29c-1.46-.54-3.32-2.05-2.54-3.82a2,2,0,0,1,.94-1.1,2.41,2.41,0,0,1,1.81.21,12.58,12.58,0,0,0,1.83.67c.47.1,1.16.08,1.61.14"/><rect class="cls-47" x="462.09" y="292.09" width="49.73" height="49.73" rx="1.8"/><rect class="cls-48" x="460.28" y="290.29" width="49.73" height="49.73" rx="1.8"/><rect class="cls-47" x="500.89" y="345.26" width="10.13" height="10.56" rx="1.08"/><rect class="cls-20" x="499.88" y="344.27" width="10.13" height="10.56" rx="1.08"/><polyline class="cls-49" points="505.77 352.81 502.54 352.81 502.54 347.36 507.35 347.36 507.35 351.23"/><circle class="cls-50" cx="503.79" cy="348.31" r="0.34"/><path class="cls-50" d="M505.77,348.31a.34.34,0,1,1,.34.34A.34.34,0,0,1,505.77,348.31Z"/><path class="cls-51" d="M503.79,348.11v-1.22a1.16,1.16,0,0,1,1.16-1.16h0a1.16,1.16,0,0,1,1.16,1.16v1.22"/><line class="cls-49" x1="507.35" y1="352.81" x2="507.35" y2="351.64"/><line class="cls-49" x1="507.35" y1="353.98" x2="507.35" y2="352.81"/><line class="cls-49" x1="507.35" y1="352.81" x2="506.18" y2="352.81"/><line class="cls-49" x1="508.52" y1="352.81" x2="507.35" y2="352.81"/><path class="cls-27" d="M485.15,329.37h12.49l-1-20.43,4.26,5.12,5.65-6.08s-7.37-9.07-8.7-9.79-7.35-1.21-7.35-1.21a5.39,5.39,0,0,1-10.77,0s-6,.48-7.34,1.21-8.7,9.79-8.7,9.79l5.64,6.08,4.27-5.12-1,20.43Z"/><path class="cls-47" d="M521.29,365.44H567.4a1.81,1.81,0,0,1,1.81,1.81v46.12a1.8,1.8,0,0,1-1.8,1.8H521.28a1.8,1.8,0,0,1-1.8-1.8V367.24A1.81,1.81,0,0,1,521.29,365.44Z"/><path class="cls-48" d="M519.48,363.63h46.12a1.8,1.8,0,0,1,1.8,1.8v46.12a1.8,1.8,0,0,1-1.8,1.8H519.48a1.8,1.8,0,0,1-1.8-1.8V365.44A1.81,1.81,0,0,1,519.48,363.63Z"/><rect class="cls-47" x="558.28" y="418.61" width="10.13" height="10.56" rx="1.08"/><rect class="cls-20" x="557.27" y="417.61" width="10.13" height="10.56" rx="1.08"/><polyline class="cls-49" points="563.16 426.16 559.93 426.16 559.93 420.7 564.74 420.7 564.74 424.57"/><path class="cls-50" d="M560.84,421.65a.34.34,0,0,1,.67,0,.34.34,0,1,1-.67,0Z"/><path class="cls-50" d="M563.16,421.65a.34.34,0,0,1,.67,0,.34.34,0,1,1-.67,0Z"/><path class="cls-51" d="M561.17,421.46v-1.23a1.16,1.16,0,0,1,1.16-1.16h0a1.16,1.16,0,0,1,1.16,1.16v1.23"/><line class="cls-49" x1="564.74" y1="426.16" x2="564.74" y2="424.99"/><line class="cls-49" x1="564.74" y1="427.33" x2="564.74" y2="426.16"/><line class="cls-49" x1="564.74" y1="426.16" x2="563.57" y2="426.16"/><line class="cls-49" x1="565.91" y1="426.16" x2="564.74" y2="426.16"/><rect class="cls-47" x="519.48" y="292.09" width="49.73" height="49.73" rx="1.8"/><rect class="cls-48" x="517.67" y="290.29" width="49.73" height="49.73" rx="1.8"/><rect class="cls-47" x="558.28" y="345.26" width="10.13" height="10.56" rx="1.08"/><rect class="cls-20" x="557.27" y="344.27" width="10.13" height="10.56" rx="1.08"/><polyline class="cls-49" points="563.16 352.81 559.93 352.81 559.93 347.36 564.74 347.36 564.74 351.23"/><circle class="cls-50" cx="561.17" cy="348.31" r="0.34"/><circle class="cls-50" cx="563.49" cy="348.31" r="0.34"/><path class="cls-51" d="M561.17,348.11v-1.22a1.16,1.16,0,0,1,1.16-1.16h0a1.16,1.16,0,0,1,1.16,1.16v1.22"/><line class="cls-49" x1="564.74" y1="352.81" x2="564.74" y2="351.64"/><line class="cls-49" x1="564.74" y1="353.98" x2="564.74" y2="352.81"/><line class="cls-49" x1="564.74" y1="352.81" x2="563.57" y2="352.81"/><line class="cls-49" x1="565.91" y1="352.81" x2="564.74" y2="352.81"/><path class="cls-17" d="M531.16,302.36c-3.87,3.74-3.26,7.92-1.86,12.79s2,14.22,2,14.22h3.38s-.4-10.35,2-11.14,6.81,8.16,7.68,9.55,2.75,1.59,4.8,1.59h12s3.53-2.74-2.89-5.84a50.75,50.75,0,0,1-4.89-2.53s-5.43-.21-11.14-5.85c-2.23-2.2-4.94-8.23-7-10.39C533.09,302.36,531.16,302.36,531.16,302.36Z"/><path class="cls-47" d="M463.9,365.44H510a1.8,1.8,0,0,1,1.8,1.8v46.12a1.8,1.8,0,0,1-1.8,1.8H463.9a1.8,1.8,0,0,1-1.8-1.8V367.24A1.81,1.81,0,0,1,463.9,365.44Z"/><rect class="cls-48" x="460.28" y="363.63" width="49.73" height="49.73" rx="1.8"/><rect class="cls-47" x="500.89" y="418.61" width="10.13" height="10.56" rx="1.08"/><rect class="cls-20" x="499.88" y="417.61" width="10.13" height="10.56" rx="1.08"/><polyline class="cls-49" points="505.77 426.16 502.54 426.16 502.54 420.7 507.35 420.7 507.35 424.57"/><path class="cls-50" d="M503.45,421.65a.34.34,0,1,1,.34.34A.34.34,0,0,1,503.45,421.65Z"/><path class="cls-50" d="M505.77,421.65a.34.34,0,1,1,.34.34A.34.34,0,0,1,505.77,421.65Z"/><path class="cls-51" d="M503.79,421.46v-1.23a1.16,1.16,0,0,1,1.16-1.16h0a1.16,1.16,0,0,1,1.16,1.16v1.23"/><line class="cls-49" x1="507.35" y1="426.16" x2="507.35" y2="424.99"/><line class="cls-49" x1="507.35" y1="427.33" x2="507.35" y2="426.16"/><line class="cls-49" x1="507.35" y1="426.16" x2="506.18" y2="426.16"/><line class="cls-49" x1="508.52" y1="426.16" x2="507.35" y2="426.16"/><path class="cls-52" d="M495.26,391v1a.46.46,0,0,1-.41.54c-.16,0-.2.11-.22.25a10.67,10.67,0,1,1,0-3.56c0,.16.07.25.24.28a.45.45,0,0,1,.4.51Zm-10.7,8.36a8.31,8.31,0,0,0,7.92-7.9.61.61,0,0,0-.33,0c-.55,0-.76-.12-.77-.43s.21-.44.75-.45a.6.6,0,0,0,.37,0,8.27,8.27,0,0,0-7.94-7.85v.28c0,.1,0,.21,0,.31,0,.3-.17.48-.42.49s-.43-.19-.45-.5a1.8,1.8,0,0,0,0-.61,8.29,8.29,0,0,0-7.87,7.93h.41c.48,0,.69.14.69.44s-.22.42-.71.43a.91.91,0,0,0-.4,0,8.28,8.28,0,0,0,7.92,7.88v-.62a.45.45,0,0,1,.44-.48.44.44,0,0,1,.43.48C484.57,398.91,484.56,399.11,484.56,399.34Z"/><path class="cls-52" d="M490.16,380.71a15.09,15.09,0,0,0-12.09,0c.06-.68.11-1.34.17-2,.07-.81.14-1.63.22-2.44a2.41,2.41,0,0,1,2.37-2.21q3.3,0,6.6,0a2.39,2.39,0,0,1,2.36,2.21c.13,1.38.25,2.75.37,4.13A2.8,2.8,0,0,1,490.16,380.71Z"/><path class="cls-52" d="M478.09,401.22a15,15,0,0,0,12.1,0c-.06.67-.11,1.31-.16,1.94-.08.83-.15,1.67-.24,2.5a2.41,2.41,0,0,1-2.42,2.22h-6.48a2.41,2.41,0,0,1-2.43-2.22c-.13-1.37-.25-2.75-.37-4.13A3,3,0,0,1,478.09,401.22Z"/><path class="cls-52" d="M483.5,390.89a.56.56,0,0,1,.46-.52.61.61,0,0,0,.36-.27l2.82-3.88.11-.15a.34.34,0,0,1,.52-.11.34.34,0,0,1,.05.52l-1,1.43-1.9,2.61c-.22.31-.22.37.09.62l2.43,2a.45.45,0,0,1,.21.51c-.1.28-.42.34-.7.11l-2.31-1.89a1,1,0,0,0-.6-.28C483.71,391.57,483.5,391.28,483.5,390.89Z"/><path class="cls-52" d="M478.9,395.86a.3.3,0,0,1,.33.33.3.3,0,0,1-.32.34.32.32,0,0,1-.35-.32A.33.33,0,0,1,478.9,395.86Z"/><path class="cls-52" d="M478.9,386.08c-.22,0-.34-.14-.33-.34a.33.33,0,1,1,.33.34Z"/><path class="cls-52" d="M489.35,386.08a.32.32,0,0,1-.33-.35.34.34,0,0,1,.67,0A.32.32,0,0,1,489.35,386.08Z"/><path class="cls-52" d="M489,396.18a.31.31,0,0,1,.35-.31.3.3,0,0,1,.32.34.34.34,0,0,1-.67,0Z"/><path class="cls-1" d="M532.08,387h-1.77c.1-.49.18-1,.29-1.44A14.83,14.83,0,0,1,533,380a11.53,11.53,0,0,1,6.67-4.61,11.23,11.23,0,0,1,9.68,1.91,12.8,12.8,0,0,1,4.34,5.79,17.61,17.61,0,0,1,1,3.83v.1h-1.61c-.1,0-.14,0-.16-.12a12.54,12.54,0,0,0-2.1-4.68,10.31,10.31,0,0,0-14.8-1.95,11.09,11.09,0,0,0-3.58,5.3c-.08.23-.15.47-.22.71S532.14,386.74,532.08,387Zm-.2-.16.06,0a1.66,1.66,0,0,0,.06-.21,13,13,0,0,1,1.87-4.24,10.45,10.45,0,0,1,10.3-4.47,10.29,10.29,0,0,1,6.55,3.82,12.42,12.42,0,0,1,2.37,4.95l0,.15a.18.18,0,0,0,0-.11,15.45,15.45,0,0,0-.55-2.23,11.32,11.32,0,0,0-3.85-5.6,9.93,9.93,0,0,0-8.34-1.91,10.09,10.09,0,0,0-6.41,4.33,13.15,13.15,0,0,0-2,5Z"/><path class="cls-1" d="M538.22,395.77v5a1.12,1.12,0,0,1-1,1.2,1.64,1.64,0,0,1-1.21-.15,1.06,1.06,0,0,1-.56-1v-10a1.17,1.17,0,0,1,1.12-1.26,1.7,1.7,0,0,1,1.06.19,1,1,0,0,1,.55.94C538.21,392.38,538.22,394.07,538.22,395.77Z"/><path class="cls-1" d="M546.85,395.76v-5a1.13,1.13,0,0,1,1.11-1.24,2,2,0,0,1,.77.06,1.07,1.07,0,0,1,.85,1.13v9.95a1.18,1.18,0,0,1-1.21,1.29,1.57,1.57,0,0,1-1-.2,1,1,0,0,1-.55-.93Z"/><path class="cls-1" d="M549.73,395.77V391.6a.78.78,0,0,1,.7-.87,1.43,1.43,0,0,1,.91.1.71.71,0,0,1,.44.69V400a.65.65,0,0,1-.4.64,1.33,1.33,0,0,1-1.24,0,.68.68,0,0,1-.41-.66C549.74,398.61,549.73,397.19,549.73,395.77Z"/><path class="cls-1" d="M535.34,395.77c0,1.41,0,2.82,0,4.23a.71.71,0,0,1-.47.72,1.43,1.43,0,0,1-1.11,0,.71.71,0,0,1-.46-.72v-8.38a.78.78,0,0,1,.7-.88,1.4,1.4,0,0,1,.88.07.71.71,0,0,1,.46.7C535.33,392.93,535.34,394.35,535.34,395.77Z"/><path class="cls-1" d="M552,399.88v-8.19l0,0a4.25,4.25,0,0,1,.35.39,4.32,4.32,0,0,1,.69,1.69,9.28,9.28,0,0,1-.17,4.65,3,3,0,0,1-.69,1.28Z"/><path class="cls-1" d="M533.14,391.67v8.17l0,0a5.2,5.2,0,0,1-.38-.44,4.35,4.35,0,0,1-.67-1.69,9.35,9.35,0,0,1,.17-4.58,3,3,0,0,1,.75-1.36l.1-.09Z"/><path class="cls-1" d="M530.65,387.17h1.06c0,.22,0,.44,0,.66a.22.22,0,0,0,.16.26,1.47,1.47,0,0,1,.71,1.7,1.45,1.45,0,0,1-2.83-.17,1.46,1.46,0,0,1,.78-1.54.2.2,0,0,0,.13-.21C530.65,387.64,530.65,387.41,530.65,387.17Z"/><path class="cls-1" d="M553.37,387.17h1c0,.24,0,.47,0,.7a.2.2,0,0,0,.13.21,1.46,1.46,0,1,1-2.1,1.5,1.47,1.47,0,0,1,.79-1.5.2.2,0,0,0,.14-.22C553.36,387.63,553.37,387.41,553.37,387.17Z"/><path class="cls-1" d="M530.17,390.69l.72.34c0,.06,0,.16,0,.26a4.21,4.21,0,0,0,.86,3,.27.27,0,0,1,0,.15c0,.56-.08,1.13-.13,1.7l-.11-.09a4.14,4.14,0,0,1-1.43-2.57,7.82,7.82,0,0,1,0-2.73Z"/><path class="cls-1" d="M553.37,396.12c0-.26,0-.54,0-.81s0-.58-.07-.88a.23.23,0,0,1,0-.16,4.14,4.14,0,0,0,.85-3,1.81,1.81,0,0,0,0-.25l.74-.34c0,.18.07.39.09.6a6.8,6.8,0,0,1-.17,2.73,4.06,4.06,0,0,1-1.36,2.07l-.06,0Z"/><path class="cls-12" d="M726.55,468.63s4.4-9.52-.81-16-11-4-11-4-4.83-15.09-16.93-10.59S690,453.72,690,453.72s-3.16-1.12-5,1.3,0,5,0,5-12.84,1-12.84,8.59Z"/></g></g></g></g></svg>