<svg xmlns="http://www.w3.org/2000/svg" xmlns:xlink="http://www.w3.org/1999/xlink" viewBox="0 0 360 500.67"><defs><style>.cls-1{fill:#1f4275;}.cls-11,.cls-19,.cls-2,.cls-24,.cls-25,.cls-28,.cls-29,.cls-32,.cls-37,.cls-40,.cls-44,.cls-45,.cls-49{fill:none;}.cls-3{isolation:isolate;}.cls-4{fill:#fff;}.cls-5{opacity:0.4;}.cls-6{fill:#dae7f6;opacity:0.55;}.cls-7{fill:#485caa;}.cls-8{fill:#263270;}.cls-9{fill:#1d1f56;}.cls-10{fill:#23a583;}.cls-11{stroke:#485caa;stroke-width:0.61px;}.cls-11,.cls-19,.cls-24,.cls-25,.cls-28,.cls-29,.cls-32,.cls-40,.cls-49{stroke-linecap:round;}.cls-11,.cls-19,.cls-24,.cls-25,.cls-28,.cls-29,.cls-32,.cls-37,.cls-40,.cls-44,.cls-45,.cls-49{stroke-miterlimit:10;}.cls-12{fill:#50bfa4;}.cls-13{fill:#e6f6fd;}.cls-14{fill:#6a89c5;}.cls-15{fill:#7a89c4;}.cls-16{fill:#6378ba;}.cls-17{fill:#ffc856;}.cls-18{fill:#fcb854;}.cls-19{stroke:#fffef9;stroke-width:0.83px;}.cls-20{fill:#ea5f5d;}.cls-21{fill:#d34b4a;}.cls-22{fill:#a6302f;}.cls-23{fill:#4864ae;}.cls-24,.cls-25,.cls-28,.cls-40{stroke:#0d1f44;}.cls-24{stroke-width:2.33px;}.cls-25{stroke-width:2.27px;}.cls-26{fill:#0d1f44;}.cls-27,.cls-42{fill:#89b7e2;}.cls-28{stroke-width:1.8px;}.cls-29{stroke:#ea5f5d;stroke-width:4.07px;}.cls-30{fill:#b1e0e4;}.cls-31{clip-path:url(#clip-path);}.cls-32,.cls-49{stroke:#b1e0e4;}.cls-32,.cls-37{stroke-width:0.55px;}.cls-33{fill:#f6998e;}.cls-34{clip-path:url(#clip-path-2);}.cls-35{fill:#4f7fac;}.cls-36{clip-path:url(#clip-path-3);}.cls-37{stroke:#284e7a;}.cls-38{fill:#00ab99;}.cls-39{fill:#bb5a65;}.cls-40{stroke-width:0.82px;}.cls-41{fill:#5fc5bb;}.cls-42{mix-blend-mode:multiply;}.cls-43{fill:#fffef9;}.cls-44,.cls-45{stroke:#fff;}.cls-44{stroke-width:0.54px;}.cls-45{stroke-width:0.36px;}.cls-46{fill:#eb9759;}.cls-47{fill:#dd7a7a;}.cls-48{clip-path:url(#clip-path-4);}.cls-49{stroke-width:0.56px;}.cls-50{clip-path:url(#clip-path-5);}.cls-51{clip-path:url(#clip-path-6);}</style><clipPath id="clip-path"><path class="cls-1" d="M38.76,433c-.16.82-.82,2.74-.63,3.67.83.71,2.62.75,4,.42s2.28.34,4,.44,3-.36,3.36-1.05-2.51-1.34-4.48-1.94a9.06,9.06,0,0,1-3.34-1.76Z"/></clipPath><clipPath id="clip-path-2"><path class="cls-1" d="M21.31,426c-.8.2-2.82.42-3.58,1-.28,1.05.44,2.69,1.32,3.75s.66,2.22,1.29,3.78,1.63,2.58,2.4,2.59.13-2.85-.17-4.88a9,9,0,0,1,.16-3.77Z"/></clipPath><clipPath id="clip-path-3"><path class="cls-2" d="M25.33,426.46s11-11.14,11.82-12.08,4.29-19.4,4.52-20.79c0,0,3.44-3.5,3.54-6.41L34,381.58a20.07,20.07,0,0,0-1.18,6.52c-.17,2.37-.69,12.17-1.06,23.76a14.62,14.62,0,0,0-2.9,2.32c-1.43,1.39-5.78,10-5.78,10A3.74,3.74,0,0,0,25.33,426.46Z"/></clipPath><clipPath id="clip-path-4"><path class="cls-1" d="M321.53,435.41c0,.82.22,2.81-.16,3.67-1,.51-2.69.17-3.91-.44s-2.28-.15-3.92-.41-2.84-1-3-1.73,2.71-.75,4.73-.92a8.69,8.69,0,0,0,3.59-1Z"/></clipPath><clipPath id="clip-path-5"><path class="cls-1" d="M342,430.34c.62.55,2.28,1.66,2.69,2.51-.24,1-1.62,2.16-2.88,2.69s-1.59,1.63-2.85,2.71-2.6,1.52-3.28,1.18,1.18-2.56,2.37-4.2a8.83,8.83,0,0,0,1.58-3.37Z"/></clipPath><clipPath id="clip-path-6"><path class="cls-2" d="M338.62,430s-8.19-13.69-8.9-15c-.59-1.1-3.38-18-3.6-19.33,0,0-4.14-5.23-4.25-8.1l7.67-2.12c.47,1.77,2.95,1.79,4.84,6,1.64,3.68,1.19,11.54.34,21.63a5.11,5.11,0,0,1,2.13,2.77c1,2.77,4.41,12.92,4.41,12.92A3.12,3.12,0,0,1,338.62,430Z"/></clipPath></defs><g class="cls-3"><g id="Layer_2" data-name="Layer 2"><g id="Layer_1-2" data-name="Layer 1"><rect class="cls-4" width="360" height="500.67"/><g class="cls-5"><path class="cls-6" d="M274.93,67.79H85.07c-5.17,0-9.36,3.72-9.36,8.31V403.52c0,4.59,4.19,8.31,9.36,8.31H274.93c5.17,0,9.36-3.72,9.36-8.31V76.1C284.29,71.51,280.1,67.79,274.93,67.79Z"/><path class="cls-7" d="M279.2,38.57H80.8c-10,0-18,7.18-18,16V425c0,8.86,8.08,16,18,16H279.2c10,0,18.05-7.18,18.05-16V54.6C297.25,45.75,289.17,38.57,279.2,38.57Zm5.09,365c0,4.59-4.19,8.31-9.36,8.31H85.07c-5.17,0-9.36-3.72-9.36-8.31V76.1c0-4.59,4.19-8.31,9.36-8.31H274.93c5.17,0,9.36,3.72,9.36,8.31Z"/><path class="cls-8" d="M80.8,441.05H279.2c10,0,18.05-7.18,18.05-16V54.6a14.89,14.89,0,0,0-4.14-10.21l-14,24.27a8.26,8.26,0,0,1,5.21,7.44V403.52c0,4.59-4.19,8.31-9.36,8.31H85.07a10.38,10.38,0,0,1-3.9-.76L67.09,435.43A19,19,0,0,0,80.8,441.05Z"/><path class="cls-9" d="M169.5,58.54c-3.34,0-6-2.4-6-5.36s2.7-5.37,6-5.37,6,2.4,6,5.37S172.84,58.54,169.5,58.54Z"/><path class="cls-9" d="M216.73,53.18h0a3.46,3.46,0,0,0-3.65-3.25h-24a3.47,3.47,0,0,0-3.66,3.25h0a3.48,3.48,0,0,0,3.66,3.25h24A3.47,3.47,0,0,0,216.73,53.18Z"/></g><path class="cls-10" d="M325.82,438.41s-3-1.34-2.52-3.42,2.84-1.87,2.52-3.51-1.91-4.2-.37-6.06,4.08-.75,4.4-3.64c.26-2.33,1.34-4,3.42-3.49s3.37,1.94,3.4,5.49c0,3.78,2.71,2.72,2.74,5.51s-2.2,2.8-3.07,4.69c-.42.89.66,4-2.52,4.43Z"/><path class="cls-11" d="M333.17,420.25S334.4,431,329,438.94"/><path class="cls-12" d="M331.73,438.41s-.47-2.57,1.27-3.61,3.53-1.86,3.34-3.55.28-3.67,3.07-3.71c1.73,0,1.08-1.84,2.83-2.21,1.07-.22,1.77.9,1.91,2,.16,1.25-.55,2.47.26,3.48,1,1.32,1.47,3.77-.78,4.47s-.25,2.83-3.32,3.14Z"/><path class="cls-11" d="M342.35,427c-.13,3.35-2.94,9.37-7.2,11.91"/><path class="cls-13" d="M65.63,438.34H284.29a0,0,0,0,1,0,0v3.29a16.47,16.47,0,0,1-16.47,16.47H82.1a16.47,16.47,0,0,1-16.47-16.47v-3.29A0,0,0,0,1,65.63,438.34Z"/><path class="cls-14" d="M342.88,439.71h-326c-.53,0-1-.3-1-.66h0c0-.36.44-.66,1-.66h326c.54,0,1,.3,1,.66h0C343.85,439.41,343.42,439.71,342.88,439.71Z"/><path class="cls-12" d="M66.11,438.39a21,21,0,0,0,.34-7.46c-.56-4.09-4.17-10.4-7.64-10.19s-3.64,4.23-1.54,6.17,7.13,6.43,7,11.31Z"/><path class="cls-11" d="M58.69,423.07c2,1.27,7.49,6.27,6.66,15.25"/><path class="cls-10" d="M65.35,438.32a10.41,10.41,0,0,0-2.84-6.9c-2.93-3.06-7.71-3.65-10-2.17-2.08,1.36-1.79,4.5,2.09,4.61,6,.17,8.6,1.05,9.69,4.36Z"/><path class="cls-11" d="M53.63,430.72c2.79-.54,10,.26,11.29,7.62"/><polygon class="cls-15" points="70.93 409.58 84.69 409.58 84.69 420.33 74.27 420.33 70.93 409.58"/><rect class="cls-16" x="84.69" y="409.58" width="5.47" height="10.76"/><rect class="cls-17" x="90.16" y="409.58" width="11.02" height="10.76"/><polygon class="cls-18" points="106.13 420.33 101.18 420.33 101.18 409.58 108.23 409.58 106.13 420.33"/><path class="cls-19" d="M80.24,391.69v-3.45a3.3,3.3,0,0,1,3.3-3.3h0a3.3,3.3,0,0,1,3.3,3.3v3.45"/><polygon class="cls-20" points="87.82 390.03 73.83 390.03 72.18 409.58 86.17 409.58 87.82 390.03"/><polygon class="cls-21" points="90.27 390.03 87.82 390.03 86.17 409.58 88.35 409.58 89.74 409.58 91.91 409.58 90.27 390.03"/><polygon class="cls-22" points="86.17 409.58 89.05 407.01 91.91 409.58 86.17 409.58"/><path class="cls-22" d="M76.94,392a.57.57,0,1,1,.57.57A.56.56,0,0,1,76.94,392Z"/><path class="cls-22" d="M83.54,392a.58.58,0,1,1,.57.57A.57.57,0,0,1,83.54,392Z"/><path class="cls-19" d="M77.51,391.69v-3.45a3.3,3.3,0,0,1,3.3-3.3h0a3.3,3.3,0,0,1,3.3,3.3v3.45"/><path class="cls-19" d="M96.55,391.69v-3.45a3.3,3.3,0,0,1,3.3-3.3h0a3.31,3.31,0,0,1,3.31,3.3v3.45"/><polygon class="cls-15" points="104.13 390.03 90.14 390.03 88.5 409.58 102.49 409.58 104.13 390.03"/><polygon class="cls-16" points="106.59 390.03 104.13 390.03 102.49 409.58 104.67 409.58 106.05 409.58 108.23 409.58 106.59 390.03"/><polygon class="cls-23" points="102.49 409.58 105.36 407.01 108.23 409.58 102.49 409.58"/><path class="cls-23" d="M93.25,392a.58.58,0,1,1,.57.57A.57.57,0,0,1,93.25,392Z"/><path class="cls-23" d="M99.85,392a.58.58,0,1,1,.58.57A.57.57,0,0,1,99.85,392Z"/><path class="cls-19" d="M93.82,391.69v-3.45a3.31,3.31,0,0,1,3.31-3.3h0a3.3,3.3,0,0,1,3.3,3.3v3.45"/><path class="cls-24" d="M58.82,390H62a3.42,3.42,0,0,1,3.24,2.35L74,419.25a1.62,1.62,0,0,0,1.53,1.11h29.6a1.61,1.61,0,0,0,1.59-1.35l3.49-21.16H67"/><path class="cls-25" d="M102.94,420.33H82.19A11.63,11.63,0,0,0,70.56,432h31"/><path class="cls-26" d="M73.13,435.63a2.4,2.4,0,1,1,2.39,2.4A2.4,2.4,0,0,1,73.13,435.63Z"/><path class="cls-27" d="M75.18,432.67a4.35,4.35,0,0,1-.68,2.84c-.68,1,.87,1.57,2.43.63a6,6,0,0,0,2.38-3.47Z"/><path class="cls-26" d="M75,435.63a.51.51,0,1,1,.51.51A.51.51,0,0,1,75,435.63Z"/><path class="cls-26" d="M89.88,435.63a2.4,2.4,0,1,1,2.39,2.4A2.4,2.4,0,0,1,89.88,435.63Z"/><path class="cls-27" d="M91.93,432.67a4.3,4.3,0,0,1-.68,2.84c-.68,1,.88,1.57,2.44.63a6,6,0,0,0,2.37-3.47Z"/><path class="cls-26" d="M91.76,435.63a.51.51,0,1,1,.51.51A.51.51,0,0,1,91.76,435.63Z"/><line class="cls-28" x1="69.48" y1="405.38" x2="109" y2="405.38"/><line class="cls-28" x1="71.95" y1="412.9" x2="107.76" y2="412.9"/><line class="cls-29" x1="60.86" y1="389.95" x2="55.97" y2="389.95"/><path class="cls-30" d="M49.42,436.43c.15.28,0,.84-1.08,1.31a8.7,8.7,0,0,1-3.94.11,4.78,4.78,0,0,0-2.48-.15c-1.19.25-3.14.14-3.73-.36-.2-.23-.06-.72-.06-.72Z"/><path class="cls-1" d="M38.76,433c-.16.82-.82,2.74-.63,3.67.83.71,2.62.75,4,.42s2.28.34,4,.44,3-.36,3.36-1.05-2.51-1.34-4.48-1.94a9.06,9.06,0,0,1-3.34-1.76Z"/><g class="cls-31"><path class="cls-32" d="M42.27,434.53a3.81,3.81,0,0,1,.92-1.47"/><path class="cls-32" d="M43.77,435.12a3.69,3.69,0,0,1,.92-1.47"/><path class="cls-32" d="M45.26,435.72a3.75,3.75,0,0,1,.93-1.47"/></g><path class="cls-33" d="M38.76,429.7V433a1.58,1.58,0,0,1,.54.31c.15.19.37.8.63.81,1,0,1.67-1.34,1.67-1.34l.4-3Z"/><path class="cls-30" d="M22.74,437.15c-.19.25-.75.39-1.64-.42a8.5,8.5,0,0,1-1.79-3.51,4.75,4.75,0,0,0-.94-2.3c-.73-1-1.47-2.78-1.27-3.52.13-.29.63-.37.63-.37Z"/><path class="cls-1" d="M21.31,426c-.8.2-2.82.42-3.58,1-.28,1.05.44,2.69,1.32,3.75s.66,2.22,1.29,3.78,1.63,2.58,2.4,2.59.13-2.85-.17-4.88a9,9,0,0,1,.16-3.77Z"/><g class="cls-34"><path class="cls-32" d="M21.39,429.87a3.64,3.64,0,0,1,1.72.21"/><path class="cls-32" d="M21.5,431.48a3.73,3.73,0,0,1,1.72.2"/><path class="cls-32" d="M21.6,433.08a3.79,3.79,0,0,1,1.72.21"/></g><path class="cls-33" d="M23.12,424.18,21.31,426a1.43,1.43,0,0,1,0,.61c-.1.23-.56.68-.46.93.42,1,1.93.93,1.93.93l2.6-2Z"/><path class="cls-1" d="M45.05,383.37c-3.65,0-6.36.27-6.36.27-1.16.51-3.16,3.16-3.75,4.84a13.25,13.25,0,0,0,0,5.94c1.71,8.05,4.56,12.69,5.23,15.89.41,1.95-1.53.9-1.53,5.85,0,4.43.16,13.88.16,13.88a4.29,4.29,0,0,0,3.17.25s2.73-15.58,3-17.36a44.9,44.9,0,0,0,.71-9.11C45.75,396.79,45.05,383.37,45.05,383.37Z"/><path class="cls-27" d="M25.33,426.46s11-11.14,11.82-12.08,4.29-19.4,4.52-20.79c0,0,3.44-3.5,3.54-6.41L34,381.58a20.07,20.07,0,0,0-1.18,6.52c-.17,2.37-.69,12.17-1.06,23.76a14.62,14.62,0,0,0-2.9,2.32c-1.43,1.39-5.78,10-5.78,10A3.74,3.74,0,0,0,25.33,426.46Z"/><path class="cls-35" d="M32.86,388.1c-.17,2.37-.69,12.17-1.06,23.76a14.62,14.62,0,0,0-2.9,2.32c-1.43,1.39-5.78,10-5.78,10a4,4,0,0,0,.46.92,93.27,93.27,0,0,1,5.22-9.27,11.49,11.49,0,0,1,4.06-3.35c.35-.3.17-1.3.29-3.53s1.43-21.53,1.43-21.53l-1.45-2.2C33,385.93,32.94,386.85,32.86,388.1Z"/><path class="cls-35" d="M44.48,389.69a9.08,9.08,0,0,1-5.73,2,12.27,12.27,0,0,1-6-1.56l.13-2Z"/><g class="cls-36"><path class="cls-37" d="M42.09,381.51c-1.64,3.08-4.55,5-5.34,7.06s-1,5.93-1.65,13.5c-.62,7.19-.86,9.39-1,10.81-.69.91-2.64,1.49-5.16,5s-5.6,8.69-5.6,8.69"/><path class="cls-37" d="M40.13,389.71s-.27,4.66-4.28,4.43"/><path class="cls-37" d="M23.64,422.67c.24,1.23,1.65,2.43,3.4,3.1"/></g><path class="cls-38" d="M44.81,364.58c.23.25.31.74-.11,2.22l-5.2-4.37Z"/><path class="cls-39" d="M49.11,356.3c.11.43.78,2.27,1,2.81s-1.23.27-1.23.27Z"/><polygon class="cls-33" points="40.52 362.43 44.31 365.86 45.67 362.3 41.97 358.38 40.52 362.43"/><path class="cls-39" d="M45.07,363.86s-3.66-2.8-3.1-5.48l3.7,3.92Z"/><path class="cls-33" d="M42,358.38a9.12,9.12,0,0,0,.21,1.05c.13.47,3.08,2.75,3.93,3.11s2.06.5,2.65-2.5.56-5.75-1-7.63-4.75-1.2-6.46.35S39.8,358.35,42,358.38Z"/><path class="cls-26" d="M42,358.38l-.56,1.55s-.63-.25-1.19-1.55-1.74-3.86-1.23-5.07a2.94,2.94,0,0,1,2.26-1.58c.33-.07.43,0,.58-.27a3.29,3.29,0,0,1,1.26-1.59,3.41,3.41,0,0,1,1.67-.49,9.71,9.71,0,0,1,2.14.26,14.18,14.18,0,0,0,4.41,0,.24.24,0,0,1,.17,0,.2.2,0,0,1,0,.19,2.73,2.73,0,0,1-2.13,2.29s1.73,1.56.25,2-5.08-.71-5.08-.71,1.58,1.18.91,1.53-2.9-.49-2.9-.49l0,1.23a1.51,1.51,0,0,0-1.53-.08C40.21,356.16,40.58,358.4,42,358.38Z"/><path class="cls-40" d="M42.36,348a3.55,3.55,0,0,0-.16,4.33,2.84,2.84,0,0,1-2-2.77"/><path class="cls-41" d="M44.28,366.45s.54-1.29.3-1.63c-.77-1.13-3.31-4.46-3.66-4.14s-1.42,1.75-1.42,1.75Z"/><path class="cls-41" d="M44.7,366.8c.33,1.5.3,4,.5,9.19.13,3.37.47,13.13.47,13.13a11.61,11.61,0,0,1-6.9,1.34c-4.13-.33-5.91-2.36-5.91-2.36s.43-13.73,1.79-19.13c2-5.57,4.85-6.54,4.85-6.54Z"/><path class="cls-38" d="M45.44,382.61,36.6,370.08c.3,2,4.71,13.18,4.71,13.18l.72-.05s.89,2.05,1.27,2.66c.25.4,1.57.77,2.29,1C45.55,385.69,45.5,384.17,45.44,382.61Z"/><path class="cls-38" d="M39.5,362.43l4.78,4,.42.35a1,1,0,0,1,.12.73Z"/><path class="cls-26" d="M47.48,356.47a.39.39,0,0,0-.4-.35.36.36,0,0,0-.35.39.37.37,0,0,0,.39.36A.38.38,0,0,0,47.48,356.47Z"/><path class="cls-26" d="M47.79,355.49l-1.72.54a.91.91,0,0,1,.63-.77A1,1,0,0,1,47.79,355.49Z"/><path class="cls-39" d="M41.37,356.1a.89.89,0,0,1,.78.08c.07.06,0,.18-.12.16-.4-.15-.88-.17-1.07.29,0,0,0,0,0,0A.64.64,0,0,1,41.37,356.1Z"/><path class="cls-39" d="M41.56,356.13s.14.09.13.12a.62.62,0,0,0-.21.19.71.71,0,0,0-.1.45.81.81,0,0,0,.64.77s0,0,0,0a.75.75,0,0,1-.79-.56A.82.82,0,0,1,41.56,356.13Z"/><path class="cls-33" d="M36.44,369c-.43-2.43,4.21-4,5.51-.87s4.52,13.53,4.52,13.53,9.52,6,10.47,5.91c1.27-.12,4.46,3.36,4.07,3.91a3.56,3.56,0,0,1-3.12.67c-1-.27-1.85-2-2.22-2.24-1.84-.62-10.66-3.53-11.84-4.55S36.72,370.56,36.44,369Z"/><path class="cls-41" d="M41.61,366.91a32.4,32.4,0,0,1,1.73,4.6c.54,1.82,2.91,9.41,2.91,9.41A6.16,6.16,0,0,1,42.46,383s-1.76-3.59-2.83-5.82-2.88-6.64-3.33-7.95,1-3.6,1.89-3.78S41,365.55,41.61,366.91Z"/><rect class="cls-42" x="141.65" y="311.55" width="31.87" height="31.87" rx="1.8"/><rect class="cls-43" x="140.49" y="310.39" width="31.87" height="31.87" rx="1.8"/><rect class="cls-42" x="166.52" y="345.63" width="6.49" height="6.77" rx="1.08"/><rect class="cls-20" x="165.87" y="344.99" width="6.49" height="6.77" rx="1.08"/><polyline class="cls-44" points="169.65 350.46 167.58 350.46 167.58 346.97 170.66 346.97 170.66 349.45"/><circle class="cls-4" cx="168.37" cy="347.58" r="0.22"/><path class="cls-4" d="M169.65,347.58a.21.21,0,0,1,.21-.22.22.22,0,1,1,0,.44A.21.21,0,0,1,169.65,347.58Z"/><path class="cls-45" d="M168.37,347.45v-.78a.76.76,0,0,1,.75-.75h0a.75.75,0,0,1,.74.75v.78"/><line class="cls-44" x1="170.66" y1="350.47" x2="170.66" y2="349.72"/><line class="cls-44" x1="170.66" y1="351.22" x2="170.66" y2="350.47"/><line class="cls-44" x1="170.66" y1="350.47" x2="169.91" y2="350.47"/><line class="cls-44" x1="171.41" y1="350.47" x2="170.66" y2="350.47"/><path class="cls-27" d="M156.43,335.44h8l-.62-13.09,2.74,3.28,3.61-3.9s-4.72-5.81-5.57-6.27-4.71-.78-4.71-.78a3.46,3.46,0,0,1-6.9,0s-3.86.31-4.71.78-5.58,6.27-5.58,6.27l3.62,3.9,2.73-3.28-.62,13.09Z"/><path class="cls-42" d="M180.24,358.56H208.5a1.81,1.81,0,0,1,1.81,1.81v28.26a1.8,1.8,0,0,1-1.8,1.8H180.24a1.8,1.8,0,0,1-1.8-1.8V360.36A1.81,1.81,0,0,1,180.24,358.56Z"/><path class="cls-43" d="M179.08,357.4h28.26a1.8,1.8,0,0,1,1.8,1.8v28.26a1.8,1.8,0,0,1-1.8,1.8H179.08a1.8,1.8,0,0,1-1.8-1.8V359.2A1.81,1.81,0,0,1,179.08,357.4Z"/><rect class="cls-42" x="203.3" y="392.63" width="6.49" height="6.77" rx="1.08"/><rect class="cls-20" x="202.65" y="392" width="6.49" height="6.77" rx="1.08"/><polyline class="cls-44" points="206.42 397.47 204.36 397.47 204.36 393.97 207.44 393.97 207.44 396.45"/><path class="cls-4" d="M204.94,394.59a.21.21,0,0,1,.21-.22.22.22,0,1,1,0,.43A.21.21,0,0,1,204.94,394.59Z"/><path class="cls-4" d="M206.42,394.59a.22.22,0,1,1,.22.21A.22.22,0,0,1,206.42,394.59Z"/><path class="cls-45" d="M205.15,394.46v-.79a.75.75,0,0,1,.75-.74h0a.74.74,0,0,1,.74.74v.79"/><line class="cls-44" x1="207.44" y1="397.47" x2="207.44" y2="396.72"/><line class="cls-44" x1="207.44" y1="398.22" x2="207.44" y2="397.47"/><line class="cls-44" x1="207.44" y1="397.47" x2="206.69" y2="397.47"/><line class="cls-44" x1="208.19" y1="397.47" x2="207.44" y2="397.47"/><rect class="cls-42" x="178.43" y="311.55" width="31.87" height="31.87" rx="1.8"/><rect class="cls-43" x="177.27" y="310.39" width="31.87" height="31.87" rx="1.8"/><rect class="cls-42" x="203.3" y="345.63" width="6.49" height="6.77" rx="1.08"/><rect class="cls-20" x="202.65" y="344.99" width="6.49" height="6.77" rx="1.08"/><polyline class="cls-44" points="206.42 350.46 204.36 350.46 204.36 346.97 207.44 346.97 207.44 349.45"/><circle class="cls-4" cx="205.15" cy="347.58" r="0.22"/><circle class="cls-4" cx="206.64" cy="347.58" r="0.22"/><path class="cls-45" d="M205.15,347.45v-.78a.76.76,0,0,1,.75-.75h0a.75.75,0,0,1,.74.75v.78"/><line class="cls-44" x1="207.44" y1="350.47" x2="207.44" y2="349.72"/><line class="cls-44" x1="207.44" y1="351.22" x2="207.44" y2="350.47"/><line class="cls-44" x1="207.44" y1="350.47" x2="206.69" y2="350.47"/><line class="cls-44" x1="208.19" y1="350.47" x2="207.44" y2="350.47"/><path class="cls-17" d="M185.92,318.13c-2.48,2.4-2.09,5.08-1.2,8.2a57.57,57.57,0,0,1,1.28,9.11h2.17s-.26-6.63,1.27-7.14,4.36,5.23,4.93,6.12,1.75,1,3.07,1h7.71s2.26-1.76-1.85-3.75a34,34,0,0,1-3.13-1.61s-3.48-.14-7.15-3.75c-1.42-1.42-3.16-5.27-4.45-6.66A4,4,0,0,0,185.92,318.13Z"/><path class="cls-42" d="M143.46,358.56h28.26a1.8,1.8,0,0,1,1.8,1.8v28.26a1.8,1.8,0,0,1-1.8,1.8H143.46a1.8,1.8,0,0,1-1.8-1.8V360.36A1.81,1.81,0,0,1,143.46,358.56Z"/><rect class="cls-43" x="140.49" y="357.4" width="31.87" height="31.87" rx="1.8"/><rect class="cls-42" x="166.52" y="392.63" width="6.49" height="6.77" rx="1.08"/><rect class="cls-20" x="165.87" y="392" width="6.49" height="6.77" rx="1.08"/><polyline class="cls-44" points="169.65 397.47 167.58 397.47 167.58 393.97 170.66 393.97 170.66 396.45"/><path class="cls-4" d="M168.16,394.59a.21.21,0,0,1,.21-.22.22.22,0,1,1,0,.43A.21.21,0,0,1,168.16,394.59Z"/><path class="cls-4" d="M169.65,394.59a.21.21,0,0,1,.21-.22.22.22,0,1,1,0,.43A.21.21,0,0,1,169.65,394.59Z"/><path class="cls-45" d="M168.37,394.46v-.79a.75.75,0,0,1,.75-.74h0a.74.74,0,0,1,.74.74v.79"/><line class="cls-44" x1="170.66" y1="397.47" x2="170.66" y2="396.72"/><line class="cls-44" x1="170.66" y1="398.22" x2="170.66" y2="397.47"/><line class="cls-44" x1="170.66" y1="397.47" x2="169.91" y2="397.47"/><line class="cls-44" x1="171.41" y1="397.47" x2="170.66" y2="397.47"/><path class="cls-46" d="M162.91,374.93v.62c0,.19-.07.32-.26.35s-.13.06-.15.15a6.82,6.82,0,0,1-13.41.27,6.83,6.83,0,1,1,13.41-2.54c0,.09,0,.15.15.17a.3.3,0,0,1,.26.33Zm-6.86,5.36a5.34,5.34,0,0,0,5.08-5.07.38.38,0,0,0-.21,0c-.36,0-.49-.08-.5-.27s.14-.29.49-.29a.37.37,0,0,0,.23,0,5.31,5.31,0,0,0-5.09-5v.18a1.34,1.34,0,0,1,0,.2.27.27,0,0,1-.27.31c-.16,0-.27-.12-.28-.32a1.29,1.29,0,0,0,0-.39,5.3,5.3,0,0,0-5,5.08h.26c.3,0,.44.09.44.28s-.14.28-.45.28a.57.57,0,0,0-.26,0,5.3,5.3,0,0,0,5.08,5c0-.13,0-.26,0-.4a.27.27,0,0,1,.28-.3.28.28,0,0,1,.27.3C156.06,380,156.05,380.14,156.05,380.29Z"/><path class="cls-46" d="M159.64,368.34a9.72,9.72,0,0,0-7.75,0c0-.44.07-.86.11-1.27s.09-1.05.14-1.57a1.55,1.55,0,0,1,1.52-1.42h4.23a1.53,1.53,0,0,1,1.51,1.42c.09.88.16,1.77.24,2.65A1.08,1.08,0,0,1,159.64,368.34Z"/><path class="cls-46" d="M151.91,381.49a9.62,9.62,0,0,0,7.75,0c0,.43-.07.84-.11,1.25s-.09,1.07-.15,1.6a1.53,1.53,0,0,1-1.55,1.42H153.7a1.53,1.53,0,0,1-1.55-1.42c-.09-.88-.16-1.76-.24-2.65A1.19,1.19,0,0,1,151.91,381.49Z"/><path class="cls-46" d="M155.37,374.87a.36.36,0,0,1,.3-.33.4.4,0,0,0,.23-.17c.6-.84,1.2-1.67,1.81-2.5l.07-.09c.09-.12.2-.17.33-.07a.21.21,0,0,1,0,.33l-.66.92c-.41.55-.81,1.11-1.22,1.67-.14.2-.13.24.06.4l1.56,1.27c.1.09.18.19.13.33s-.27.22-.44.07l-1.48-1.21a.67.67,0,0,0-.39-.18C155.51,375.31,155.37,375.12,155.37,374.87Z"/><path class="cls-46" d="M152.43,378.06a.2.2,0,0,1,.21.2.21.21,0,0,1-.21.23.2.2,0,0,1-.22-.21A.2.2,0,0,1,152.43,378.06Z"/><path class="cls-46" d="M152.43,371.79a.2.2,0,0,1-.22-.22.22.22,0,0,1,.43,0A.21.21,0,0,1,152.43,371.79Z"/><path class="cls-46" d="M159.12,371.78a.2.2,0,0,1-.21-.22.21.21,0,0,1,.22-.21.22.22,0,0,1,.21.23A.19.19,0,0,1,159.12,371.78Z"/><path class="cls-46" d="M158.91,378.26a.22.22,0,0,1,.43,0,.2.2,0,0,1-.22.21A.21.21,0,0,1,158.91,378.26Z"/><path class="cls-1" d="M186.51,372.37h-1.13c.06-.31.11-.62.18-.93a9.59,9.59,0,0,1,1.56-3.57,7.34,7.34,0,0,1,4.27-2.95,7.17,7.17,0,0,1,6.2,1.22,8.22,8.22,0,0,1,2.79,3.71,11.5,11.5,0,0,1,.65,2.45v.07h-1c-.06,0-.09,0-.1-.08a8.07,8.07,0,0,0-1.35-3,6.58,6.58,0,0,0-9.48-1.25,7.08,7.08,0,0,0-2.3,3.39c-.05.16-.1.31-.14.46Zm-.13-.1h0s0-.09,0-.14a8.21,8.21,0,0,1,1.19-2.71,6.71,6.71,0,0,1,6.61-2.87,6.63,6.63,0,0,1,4.19,2.45,8,8,0,0,1,1.53,3.18.29.29,0,0,0,0,.09s0,0,0-.07a8.53,8.53,0,0,0-.35-1.43,7.28,7.28,0,0,0-2.47-3.59,6.33,6.33,0,0,0-5.34-1.22,6.49,6.49,0,0,0-4.11,2.77,8.45,8.45,0,0,0-1.31,3.21Z"/><path class="cls-1" d="M190.44,378v3.2a.72.72,0,0,1-.61.77,1.12,1.12,0,0,1-.78-.1.7.7,0,0,1-.36-.65v-6.39a.75.75,0,0,1,.72-.81,1.07,1.07,0,0,1,.68.12.65.65,0,0,1,.35.61Z"/><path class="cls-1" d="M196,378v-3.18a.73.73,0,0,1,.71-.8,1.63,1.63,0,0,1,.49,0,.7.7,0,0,1,.54.73v6.37a.75.75,0,0,1-.77.83,1,1,0,0,1-.62-.12.66.66,0,0,1-.35-.6Z"/><path class="cls-1" d="M197.82,378v-2.67a.49.49,0,0,1,.45-.56.89.89,0,0,1,.58.06.45.45,0,0,1,.28.44v5.46a.43.43,0,0,1-.25.42.87.87,0,0,1-.8,0,.43.43,0,0,1-.26-.42Z"/><path class="cls-1" d="M188.59,378c0,.9,0,1.8,0,2.71a.45.45,0,0,1-.31.46.88.88,0,0,1-.71,0,.46.46,0,0,1-.29-.46v-5.38a.51.51,0,0,1,.45-.56.9.9,0,0,1,.56.05.46.46,0,0,1,.3.45C188.59,376.18,188.59,377.09,188.59,378Z"/><path class="cls-1" d="M199.24,380.63v-5.25h0a2.73,2.73,0,0,1,.23.25,2.84,2.84,0,0,1,.44,1.08,6,6,0,0,1-.11,3,2,2,0,0,1-.44.82Z"/><path class="cls-1" d="M187.18,375.37v5.24h0c-.08-.09-.17-.18-.25-.28a3,3,0,0,1-.42-1.08,5.93,5.93,0,0,1,.11-2.93,1.91,1.91,0,0,1,.48-.88l.06-.05Z"/><path class="cls-1" d="M185.59,372.48h.68c0,.15,0,.29,0,.43a.15.15,0,0,0,.1.17.93.93,0,0,1,.46,1.08.93.93,0,1,1-1.31-1.09.12.12,0,0,0,.07-.14Z"/><path class="cls-1" d="M200.15,372.48h.67c0,.16,0,.31,0,.45a.14.14,0,0,0,.08.14.93.93,0,0,1,.48,1.09.94.94,0,0,1-.93.69.94.94,0,0,1-.39-1.78.13.13,0,0,0,.09-.15Z"/><path class="cls-1" d="M185.28,374.74l.47.22s0,.1,0,.17a2.68,2.68,0,0,0,.55,1.91.19.19,0,0,1,0,.1c0,.36,0,.72-.08,1.08l-.07-.05a2.69,2.69,0,0,1-.92-1.65,4.9,4.9,0,0,1,0-1.75Z"/><path class="cls-1" d="M200.15,378.22c0-.17,0-.34,0-.52s0-.37,0-.56a.12.12,0,0,1,0-.1,2.71,2.71,0,0,0,.54-1.92c0-.06,0-.12,0-.16l.47-.22.06.38a4.3,4.3,0,0,1-.11,1.75,2.66,2.66,0,0,1-.87,1.33l0,0Z"/><path class="cls-12" d="M329,438.34s2.82-6.1-.52-10.27-7-2.54-7-2.54-3.1-9.67-10.85-6.79-5,10-5,10a3,3,0,0,0-3.22.84,2.81,2.81,0,0,0,0,3.22s-8.23.63-8.23,5.5Z"/><path class="cls-47" d="M326.8,369.91c-1.56.36-2.13,1-3.22,3.95s-3.35,9.61-3.66,10c0,0-8.27-.8-10.34-1.12a20.41,20.41,0,0,0-3.82-.14c-.84,0-2.33.15-2.94.26-1.62.29-.47,1.55.82,2.37,1.71,1.08,4.58,0,6.71.21s9.78,2.49,10.83,2.07,5.47-9.47,5.47-9.47Z"/><path class="cls-47" d="M309.58,382.7c-1.07-.14-.77-.47-1.54-.85s-1.39-.32-2-.59-.57.33-.18.66a5.15,5.15,0,0,0,.76.35c.44.22-.81.29-.81.29Z"/><path class="cls-30" d="M310.52,436.5c-.2.24-.21.8.76,1.49a8.38,8.38,0,0,0,3.78.94,4.8,4.8,0,0,1,2.42.39c1.09.49,3,.8,3.67.45.25-.19.22-.69.22-.69Z"/><path class="cls-1" d="M321.53,435.41c0,.82.22,2.81-.16,3.67-1,.51-2.69.17-3.91-.44s-2.28-.15-3.92-.41-2.84-1-3-1.73,2.71-.75,4.73-.92a8.69,8.69,0,0,0,3.59-1Z"/><g class="cls-48"><path class="cls-49" d="M317.82,436.19a3.75,3.75,0,0,0-.58-1.62"/><path class="cls-49" d="M316.25,436.44a3.73,3.73,0,0,0-.58-1.61"/><path class="cls-49" d="M314.68,436.69a3.73,3.73,0,0,0-.58-1.61"/></g><path class="cls-33" d="M322.11,432.55l-.58,2.86a1.39,1.39,0,0,0-.58.19c-.19.14-.53.69-.78.64-1-.18-1.33-1.65-1.33-1.65l.44-7.63Z"/><path class="cls-30" d="M335.64,439.43c.05.3.47.68,1.63.38a8.52,8.52,0,0,0,3.17-2.26,4.75,4.75,0,0,1,1.87-1.59c1.08-.51,2.55-1.75,2.72-2.5,0-.31-.38-.61-.38-.61Z"/><path class="cls-1" d="M342,430.34c.62.55,2.28,1.66,2.69,2.51-.24,1-1.62,2.16-2.88,2.69s-1.59,1.63-2.85,2.71-2.6,1.52-3.28,1.18,1.18-2.56,2.37-4.2a8.83,8.83,0,0,0,1.58-3.37Z"/><g class="cls-50"><path class="cls-49" d="M340.14,433.67a3.58,3.58,0,0,0-1.6-.6"/><path class="cls-49" d="M339.31,435a3.68,3.68,0,0,0-1.6-.61"/><path class="cls-49" d="M338.49,436.39a3.68,3.68,0,0,0-1.6-.61"/></g><path class="cls-33" d="M341.12,428.39l.84,1.95a1.39,1.39,0,0,0-.23.56c0,.24.18.85,0,1-.81.66-2.12-.06-2.12-.06l-1.35-3Z"/><path class="cls-1" d="M321.85,387.34a25.56,25.56,0,0,0,6.55-2.65c1.23.23,3.2,3.72,4.14,5.21S330.18,396,330,397c-1.33,6.09-2.51,10.38-3.37,13.16-.58,1.88-1.45,4.18-1.54,4.9.86,2.69-2.86,17.71-2.86,17.71a3.31,3.31,0,0,1-3.26-.73s.68-16.3.74-18.09c.18-5.87,1-10.15,1.16-12.66C321.46,390.84,321.85,387.34,321.85,387.34Z"/><path class="cls-27" d="M338.62,430s-8.19-13.69-8.9-15c-.59-1.1-3.38-18-3.6-19.33,0,0-4.14-5.23-4.25-8.1l7.67-2.12c.47,1.77,2.95,1.79,4.84,6,1.64,3.68,1.19,11.54.34,21.63a5.11,5.11,0,0,1,2.13,2.77c1,2.77,4.41,12.92,4.41,12.92A3.12,3.12,0,0,1,338.62,430Z"/><path class="cls-35" d="M341.26,428.72s-3.44-10.15-4.41-12.92a5.11,5.11,0,0,0-2.13-2.77c.85-10.09,1.3-17.95-.34-21.63-1.89-4.21-4.37-4.23-4.84-6l-7.67,2.12a9.8,9.8,0,0,0,1.38,3.81c1.37-.14,5.11-.63,7.21-1.73a17.26,17.26,0,0,1,2.61,7.8,150.72,150.72,0,0,1,.55,15.73c0,.74.94.74,2.28,3.35,1.09,2.13,3.71,10.23,4.72,12.87A2.71,2.71,0,0,0,341.26,428.72Z"/><g class="cls-51"><path class="cls-37" d="M327.18,386.93c2.36,4.41,4.35,7.39,4.68,14.28s.85,12.78.85,12.78c.16.9,1.65,1.41,2.93,4.61,1.41,3.52,4.69,12.07,4.69,12.07"/><path class="cls-37" d="M330.31,393.21c-1.11.5-2.43.34-3.42-1.36a32,32,0,0,1-2-4.74"/><path class="cls-37" d="M336.92,428.75s3.32.29,4.34-2"/></g><path class="cls-41" d="M329.57,368.82a1.7,1.7,0,0,0,.83.3,7.76,7.76,0,0,1,2.54,2c.86,1.2.74,3.75-.38,7-.56,1.62-3.08,4.87-1.18,9.11,0,0-5.06,2.71-9.68.43-.07-2.33.5-3.71.52-6.28a5.58,5.58,0,0,1-1.36-2.86c-.22-3.14,2.92-4.09,5.36-7.59.69-1,1.2-.93,2.13-1.64A2.19,2.19,0,0,1,329.57,368.82Z"/><path class="cls-38" d="M332.56,378.12a.49.49,0,0,0,0-.11l-.31-1.24-1.52-3.61-1.54.26a30.18,30.18,0,0,0,.65,7.95,27,27,0,0,0,.8,2.73C330.67,381.39,332.15,379.31,332.56,378.12Z"/><path class="cls-33" d="M326.21,370.89c0,.47-.85,1.49-.64,2.2s1.26.17,2.05-.63,1.7-2.66,2.78-3.34a2.12,2.12,0,0,1-.55-.47Z"/><path class="cls-26" d="M328.06,357s-.95-2-4.11-1.54-3.61,4.09-3.36,5.31a4.38,4.38,0,0,0,2,2.74Z"/><path class="cls-33" d="M327.89,365.43l1.38,1.23.61,2.06a5.37,5.37,0,0,0-1.2,1.08c-.41.61-1.32,2.08-2.41,2.2a9,9,0,0,0,0-2c-.17-.72-.67-2.13-.67-2.13Z"/><path class="cls-39" d="M327.89,365.43a5.72,5.72,0,0,1,.15,1.43c-.05.59-.64,1.5-2,2.49-.22-.69-.5-1.51-.5-1.51Z"/><path class="cls-39" d="M322.09,362.84c-.25.92-1.31,2.22-1.08,2.45s1.09.15,1.09.15a1.68,1.68,0,0,0,.44-1.54C322.32,363,322.09,362.84,322.09,362.84Z"/><path class="cls-33" d="M324.4,357.05c-1.28.11-2.57,1.89-2.54,3.51s.4,2.49.29,3.63a7.12,7.12,0,0,0,.39,3.44c.32.8,1.15,1,2.25.71a8.13,8.13,0,0,0,2.72-1.53c.32-.3.38-1.38.38-1.38a3.18,3.18,0,0,0,2.21-1.6C330.79,362.44,330.66,356.48,324.4,357.05Z"/><path class="cls-26" d="M327.89,365.43a2.08,2.08,0,0,0,1.26-2.07c-.13-1.58-2.25-1.63-2.16-.25,0,.12-.83-.29-.87-.32a7.89,7.89,0,0,1-1-.73,7,7,0,0,1-1.63-1.88,4.76,4.76,0,0,1-.58-3.26,1,1,0,0,1,.78-.9,3.73,3.73,0,0,1,1.72-.23,4.51,4.51,0,0,1,2.64,1.24,3,3,0,0,1,2.77.28,5.2,5.2,0,0,1,1,5.85,7.82,7.82,0,0,1-2.56,3.5Z"/><path class="cls-26" d="M328.06,357a3.24,3.24,0,0,1,2.32-.28c1.4.31,2.58,2.15,2.61,4.74s-.22,5-1.06,5.9a5.27,5.27,0,0,1-4.22,1.78,4.75,4.75,0,0,0,.18-3.74,1.34,1.34,0,0,0,1.83-.58C330.59,363.67,328.06,357,328.06,357Z"/><path class="cls-26" d="M323.21,363.24a.38.38,0,0,1,.39-.35.37.37,0,1,1,0,.74A.36.36,0,0,1,323.21,363.24Z"/><path class="cls-26" d="M322.9,362.27l1.7.54a.9.9,0,0,0-.62-.76A1,1,0,0,0,322.9,362.27Z"/><path class="cls-39" d="M328.27,363a.9.9,0,0,0-.77.08c-.07.06.06.18.13.16.39-.15.86-.17,1.06.29,0,0,0,0,0,0A.64.64,0,0,0,328.27,363Z"/><path class="cls-39" d="M328.09,363.06s-.14.09-.13.12a.53.53,0,0,1,.21.19.68.68,0,0,1,.09.44.79.79,0,0,1-.63.76s0,0,0,0c.33.09.7-.26.78-.55A.82.82,0,0,0,328.09,363.06Z"/><path class="cls-33" d="M319,388.54c.49,0,.73-.12.48-.33-.44-.36-.85-.6-.91-1s.44-.16.73,0a7.93,7.93,0,0,1,2.3,1.17,72.54,72.54,0,0,0,9.67-4.11s-1.8-7.47-2-9.41.05-3.79,2.14-4.26c1-.23,1.66.93,2,3.35s1.41,10.92,1.28,11.85-1.14,1.62-4.83,2.8c-2.09.67-8.05,2.15-8.05,2.15a5.78,5.78,0,0,1-1.52.53"/><path class="cls-19" d="M315.62,394.81v-3.32a3.19,3.19,0,0,1,3.19-3.19h0a3.19,3.19,0,0,1,3.19,3.19v3.32"/><polygon class="cls-20" points="322.94 393.21 309.44 393.21 307.85 412.08 321.35 412.08 322.94 393.21"/><polygon class="cls-21" points="325.31 393.21 322.94 393.21 321.35 412.08 323.45 412.08 324.79 412.08 326.89 412.08 325.31 393.21"/><polygon class="cls-22" points="321.35 412.08 324.12 409.6 326.89 412.08 321.35 412.08"/><path class="cls-22" d="M312.44,395.07a.55.55,0,0,1,.55-.56.56.56,0,0,1,0,1.11A.55.55,0,0,1,312.44,395.07Z"/><path class="cls-22" d="M318.81,395.07a.56.56,0,1,1,.55.55A.56.56,0,0,1,318.81,395.07Z"/><path class="cls-19" d="M313,394.81v-3.32a3.19,3.19,0,0,1,3.19-3.19h0a3.18,3.18,0,0,1,3.18,3.19v3.32"/><path class="cls-33" d="M320.31,391.22a7,7,0,0,1-3,0,6.32,6.32,0,0,1-.62-.18c-.94-.35-2.13-1.32-1.63-2.45a1.25,1.25,0,0,1,.6-.71,1.54,1.54,0,0,1,1.16.14,8.62,8.62,0,0,0,1.17.42c.31.07.75.06,1,.1"/></g></g></g></svg>